<svg xmlns="http://www.w3.org/2000/svg" shape-rendering="geometricPrecision" style="background-color:#fff" viewBox="0 0 1000 1000" xmlns:v="https://vecta.io/nano"><style><![CDATA[.B{fill:none}.C{stroke-linecap:round}.D{stroke-linejoin:round}.E{stroke-miterlimit:10}.F{stroke-width:3}.G{opacity:.25}.H{fill:#ff617a}.I{fill:#f9ffff}.J{stroke-width:2.452}.K{stroke-width:2.621}.L{stroke-width:2.069}]]></style><defs><linearGradient id="A" x1=".001" x2=".001" y1="265.02" y2="-265.023" spreadMethod="pad" href="#Ae"><stop offset="0%" stop-color="#56b5fd"/><stop offset="100%" stop-color="#6fc0fd"/><stop offset="100%" stop-color="#56b5fd"/></linearGradient><linearGradient id="B" x1="-.002" x2="-.002" y1="66.114" y2="-66.121" spreadMethod="pad" href="#Ae"><stop offset="0%" stop-color="#feb26b"/><stop offset="100%" stop-color="#feecba"/></linearGradient><linearGradient id="C" x1="761.879" x2="36.399" y1="431.758" y2="431.758" spreadMethod="pad" href="#Ae"><stop offset="0%" stop-color="#ff5a74"/><stop offset="100%" stop-color="#f9ce99"/></linearGradient><linearGradient id="D" x1="761.879" x2="135.917" y1="393.475" y2="393.475" spreadMethod="pad" href="#Ae"><stop offset="0%" stop-color="#ff5a74"/><stop offset="100%" stop-color="#f9ce99"/></linearGradient><linearGradient id="E" x1="761.879" x2="221.87" y1="465.484" y2="465.484" spreadMethod="pad" href="#Ae"><stop offset="0%" stop-color="#ff5a74"/><stop offset="100%" stop-color="#f9ce99"/></linearGradient><linearGradient id="F" x1="729.871" x2="56.83" y1="389.088" y2="318.645" spreadMethod="pad" href="#Ae"><stop offset="0%" stop-color="#ff5a74"/><stop offset="100%" stop-color="#f9ce99"/></linearGradient><linearGradient id="G" x1="576.904" x2="680.767" y1="301.908" y2="301.908" spreadMethod="pad" href="#Ae"><stop offset="0%" stop-color="#fff"/><stop offset="100%" stop-color="#d6faff"/></linearGradient><linearGradient id="H" x1="610.16" x2="465.069" y1="256.841" y2="256.841" spreadMethod="pad" href="#Ae"><stop offset="0%" stop-color="#fff"/><stop offset="100%" stop-color="#d6faff"/></linearGradient><linearGradient id="I" x1="380.245" x2="486.416" y1="333.516" y2="333.516" spreadMethod="pad" href="#Ae"><stop offset="0%" stop-color="#fff"/><stop offset="100%" stop-color="#d6faff"/></linearGradient><linearGradient id="J" x1="691.671" x2="609.915" y1="165.014" y2="306.012" spreadMethod="pad" href="#Ae"><stop offset="0%" stop-color="#241349"/><stop offset="100%" stop-color="#924c70"/></linearGradient><linearGradient id="K" x1="636.889" x2="659.606" y1="291.163" y2="291.163" spreadMethod="pad" href="#Ae"><stop offset="0%" stop-color="#006891"/><stop offset="100%" stop-color="#59448a"/></linearGradient><linearGradient id="L" x1="675.279" x2="622.204" y1="171.132" y2="262.668" spreadMethod="pad" href="#Ae"><stop offset="0%" stop-color="#1c1f34"/><stop offset="100%" stop-color="#1f667d"/></linearGradient><linearGradient id="M" x1="350.979" x2="511.756" y1="473.82" y2="376.87" spreadMethod="pad" href="#Ae"><stop offset="0%" stop-color="#241349"/><stop offset="100%" stop-color="#b14cac"/></linearGradient><linearGradient id="N" x1="141.214" x2="475.147" y1="635.561" y2="403.493" spreadMethod="pad" href="#Ae"><stop offset="0%" stop-color="#1d1e2a"/><stop offset="100%" stop-color="#3a43a8"/></linearGradient><linearGradient id="O" x1="377.187" x2="329.613" y1="356.567" y2="438.614" spreadMethod="pad" href="#Ae"><stop offset="0%" stop-color="#1a1a24"/><stop offset="58.38%" stop-color="#2a2e44"/></linearGradient><linearGradient id="P" x1="415.071" x2="394.255" y1="258.501" y2="294.402" spreadMethod="pad" href="#Ae"><stop offset="41.62%" stop-color="#2a2e44"/><stop offset="100%" stop-color="#1a1a24"/></linearGradient><linearGradient id="Q" x1="326.463" x2="837.066" y1="251.212" y2="251.212" spreadMethod="pad" href="#Ae"><stop offset="0%" stop-color="#333e47"/><stop offset="100%" stop-color="#4243a8"/></linearGradient><linearGradient id="R" x1="429.404" x2="878.356" y1="279.287" y2="279.287" spreadMethod="pad" href="#Ae"><stop offset="0%" stop-color="#333e47"/><stop offset="100%" stop-color="#4243a8"/></linearGradient><linearGradient id="S" x1="384.347" x2="323.997" y1="389.596" y2="480.475" spreadMethod="pad" href="#Ae"><stop offset="0%" stop-color="#283e44"/><stop offset="100%" stop-color="#1a1a24"/></linearGradient><linearGradient id="T" x1="361.492" x2="263.877" y1="391.585" y2="557.777" spreadMethod="pad" href="#Ae"><stop offset="0%" stop-color="#2d6973"/><stop offset="100%" stop-color="#1a1a24"/></linearGradient><linearGradient id="U" x1="804.603" x2="688.528" y1="281.422" y2="479.044" spreadMethod="pad" href="#Ae"><stop offset="0%" stop-color="#241349"/><stop offset="100%" stop-color="#b384c6"/></linearGradient><linearGradient id="V" x1="848.842" x2="650.459" y1="529.714" y2="341.289" spreadMethod="pad" href="#Ae"><stop offset="0%" stop-color="#241349"/><stop offset="100%" stop-color="#3a43a8"/></linearGradient><linearGradient id="W" x1="666.967" x2="415.347" y1="483.957" y2="912.348" spreadMethod="pad" href="#Ae"><stop offset="0%" stop-color="#2a2e44"/><stop offset="100%" stop-color="#1a1a24"/></linearGradient><linearGradient id="X" x1="659.27" x2="932.115" y1="583.12" y2="583.12" spreadMethod="pad" href="#Ae"><stop offset="0%" stop-color="#c1508e"/><stop offset="100%" stop-color="#1b1e50"/></linearGradient><linearGradient id="Y" x1="638.427" x2="752.563" y1="466.62" y2="466.62" spreadMethod="pad" href="#Ae"><stop offset="0%" stop-color="#333e47"/><stop offset="100%" stop-color="#4243a8"/></linearGradient><linearGradient id="Z" x1="710.974" x2="766.216" y1="464.978" y2="464.978" spreadMethod="pad" href="#Ae"><stop offset="0%" stop-color="#333e47"/><stop offset="100%" stop-color="#4243a8"/></linearGradient><linearGradient id="a" x1="702.434" x2="968.203" y1="549.978" y2="575.355" spreadMethod="pad" href="#Ae"><stop offset="0%" stop-color="#241349"/><stop offset="100%" stop-color="#3a43a8"/></linearGradient><linearGradient id="b" x1="739.314" x2="815.313" y1="450.792" y2="450.792" spreadMethod="pad" href="#Ae"><stop offset="0%" stop-color="#333e47"/><stop offset="100%" stop-color="#4243a8"/></linearGradient><linearGradient id="c" x1=".287" x2=".544" y1="1.088" y2=".181" spreadMethod="pad"><stop offset="0%" stop-color="#e06972"/><stop offset="100%" stop-color="#ffb781"/></linearGradient><linearGradient id="d" x1="755.821" x2="815.743" y1="487.219" y2="487.219" spreadMethod="pad" href="#Ae"><stop offset="0%" stop-color="#333e47"/><stop offset="100%" stop-color="#4243a8"/></linearGradient><linearGradient id="e" x1="780.676" x2="816.404" y1="453.049" y2="453.049" spreadMethod="pad" href="#Ae"><stop offset="0%" stop-color="#333e47"/><stop offset="100%" stop-color="#4243a8"/></linearGradient><linearGradient id="f" x1="505.233" x2="505.233" y1="907.068" y2="469.744" spreadMethod="pad" href="#Ae"><stop offset="0%" stop-color="#328b99"/><stop offset="66.08%" stop-color="#a9f1cd"/></linearGradient><linearGradient id="g" x1="376.464" x2="376.464" y1="928.002" y2="832.657" spreadMethod="pad" href="#Ae"><stop offset="0%" stop-color="#d1f5ff"/><stop offset="100%" stop-color="#7de1ff"/></linearGradient><linearGradient id="h" x1="376.464" x2="376.464" y1="858.3" y2="762.955" spreadMethod="pad" href="#Ae"><stop offset="0%" stop-color="#d1f5ff"/><stop offset="100%" stop-color="#7de1ff"/></linearGradient><linearGradient id="i" x1="376.464" x2="376.464" y1="788.082" y2="692.736" spreadMethod="pad" href="#Ae"><stop offset="0%" stop-color="#d1f5ff"/><stop offset="100%" stop-color="#7de1ff"/></linearGradient><linearGradient id="j" x1="376.464" x2="376.464" y1="716.683" y2="621.338" spreadMethod="pad" href="#Ae"><stop offset="0%" stop-color="#d1f5ff"/><stop offset="100%" stop-color="#7de1ff"/></linearGradient><linearGradient id="k" x1="379.323" x2="379.323" y1="646.588" y2="546.399" spreadMethod="pad" href="#Ae"><stop offset="0%" stop-color="#d1f5ff"/><stop offset="100%" stop-color="#7de1ff"/></linearGradient><linearGradient id="l" x1="165.071" x2="165.071" y1="60.972" y2="-.002" spreadMethod="pad" href="#Ae"><stop offset="0%" stop-color="rgba(86,181,253,0)"/><stop offset="62.01%" stop-color="#7de1ff"/><stop offset="100%" stop-color="#92ccfe"/></linearGradient><linearGradient id="m" x1="788.621" x2="545.642" y1="96.35" y2="462.952" spreadMethod="pad" href="#Ae"><stop offset="0%" stop-color="#241349"/><stop offset="100%" stop-color="#924c70"/></linearGradient><linearGradient id="n" x1="474.619" x2="789.26" y1="674.012" y2="508.772" spreadMethod="pad" href="#Ae"><stop offset="0%" stop-color="#333e47"/><stop offset="100%" stop-color="#4243a8"/></linearGradient><linearGradient id="o" x1="458.512" x2="413.318" y1="891.242" y2="750.627" spreadMethod="pad" href="#Ae"><stop offset="0%" stop-color="#328b99"/><stop offset="66.08%" stop-color="#a9f1cd"/></linearGradient><linearGradient id="p" x1="385.891" x2="417.116" y1="169.349" y2="239.976" spreadMethod="pad" href="#Ae"><stop offset="0%" stop-color="#0d2234"/><stop offset="100%" stop-color="#2356ad"/></linearGradient><linearGradient id="q" x1="680.691" x2="615.779" y1="802.358" y2="741.979" spreadMethod="pad" href="#Ae"><stop offset="0%" stop-color="#152034"/><stop offset="100%" stop-color="#2b88ac"/></linearGradient><linearGradient id="r" x1="824.141" x2="683.92" y1="896.98" y2="816.913" spreadMethod="pad" href="#Ae"><stop offset="0%" stop-color="rgba(21,32,52,0.17)"/><stop offset="100%" stop-color="#36aca8"/></linearGradient><linearGradient id="s" x1="608.211" x2="635.384" y1="870.193" y2="831.595" spreadMethod="pad" href="#Ae"><stop offset="0%" stop-color="#328b99"/><stop offset="100%" stop-color="#e8ffc9"/></linearGradient><linearGradient id="t" x1="604.712" x2="590.229" y1="826.692" y2="791.195" spreadMethod="pad" href="#Ae"><stop offset="0%" stop-color="#328b99"/><stop offset="100%" stop-color="#e8ffc9"/></linearGradient><linearGradient id="u" x1="599.721" x2="644.149" y1="860.148" y2="860.148" spreadMethod="pad" href="#Ae"><stop offset="0%" stop-color="#328b99"/><stop offset="100%" stop-color="#e8ffc9"/></linearGradient><linearGradient id="v" x1="602.594" x2="631.679" y1="798.696" y2="786.612" spreadMethod="pad" href="#Ae"><stop offset="0%" stop-color="#328b99"/><stop offset="100%" stop-color="#e8ffc9"/></linearGradient><linearGradient id="w" x1="628.984" x2="571.423" y1="885.207" y2="877.169" spreadMethod="pad" href="#Ae"><stop offset="0%" stop-color="#328b99"/><stop offset="100%" stop-color="#e8ffc9"/></linearGradient><linearGradient id="x" x1="698.245" x2="612.917" y1="911.693" y2="829.471" spreadMethod="pad" href="#Ae"><stop offset="0%" stop-color="#328b99"/><stop offset="100%" stop-color="#e8ffc9"/></linearGradient><linearGradient id="y" x1="686.338" x2="632.262" y1="769.954" y2="769.136" spreadMethod="pad" href="#Ae"><stop offset="0%" stop-color="#328b99"/><stop offset="100%" stop-color="#e8ffc9"/></linearGradient><linearGradient id="z" x1="672.513" x2="660.907" y1="770.436" y2="739.151" spreadMethod="pad" href="#Ae"><stop offset="0%" stop-color="#328b99"/><stop offset="100%" stop-color="#e8ffc9"/></linearGradient><linearGradient id="AA" x1="698.585" x2="659.643" y1="824.676" y2="787.149" spreadMethod="pad" href="#Ae"><stop offset="0%" stop-color="#328b99"/><stop offset="100%" stop-color="#e8ffc9"/></linearGradient><linearGradient id="AB" x1="692.069" x2="696.264" y1="801.063" y2="763.659" spreadMethod="pad" href="#Ae"><stop offset="0%" stop-color="#328b99"/><stop offset="100%" stop-color="#e8ffc9"/></linearGradient><linearGradient id="AC" x1="656.309" x2="654.956" y1="903.101" y2="845.039" spreadMethod="pad" href="#Ae"><stop offset="0%" stop-color="#328b99"/><stop offset="100%" stop-color="#e8ffc9"/></linearGradient><linearGradient id="AD" x1="669.794" x2="713.385" y1="863.16" y2="845.049" spreadMethod="pad" href="#Ae"><stop offset="0%" stop-color="#328b99"/><stop offset="100%" stop-color="#e8ffc9"/></linearGradient><linearGradient id="AE" x1="641.946" x2="604.405" y1="966.154" y2="902.571" spreadMethod="pad" href="#Ae"><stop offset="0%" stop-color="#328b99"/><stop offset="100%" stop-color="#e8ffc9"/></linearGradient><linearGradient id="AF" x1="631.5" x2="659.689" y1="950.515" y2="914.72" spreadMethod="pad" href="#Ae"><stop offset="0%" stop-color="#328b99"/><stop offset="100%" stop-color="#e8ffc9"/></linearGradient><linearGradient id="AG" x1="702.584" x2="781.241" y1="960.061" y2="855.537" spreadMethod="pad" href="#Ae"><stop offset="0%" stop-color="#328b99"/><stop offset="100%" stop-color="#a9f1cd"/></linearGradient><linearGradient id="AH" x1="663.45" x2="725.369" y1="867.798" y2="867.798" spreadMethod="pad" href="#Ae"><stop offset="0%" stop-color="#ffca91"/><stop offset="100%" stop-color="#ffe278"/><stop offset="100%" stop-color="#ffca91"/></linearGradient><linearGradient id="AI" x1="291.024" x2="414.065" y1="66.497" y2="191.532" spreadMethod="pad" href="#Ae"><stop offset="0%" stop-color="#152034"/><stop offset="100%" stop-color="#1d7d70"/></linearGradient><linearGradient id="AJ" x1="771.763" x2="671.372" y1="11.331" y2="203.871" spreadMethod="pad" href="#Ae"><stop offset="0%" stop-color="#152034"/><stop offset="100%" stop-color="#65a371"/></linearGradient><linearGradient id="AK" x1="702.434" x2="968.203" y1="549.978" y2="575.355" spreadMethod="pad" href="#Ae"><stop offset="0%" stop-color="#3841a0"/><stop offset="100%" stop-color="#25283a"/></linearGradient><linearGradient id="AL" x1="565.53" x2="600.223" y1="389.539" y2="390.385" spreadMethod="pad" href="#Ae"><stop offset="0%" stop-color="#ffcd85"/><stop offset="100%" stop-color="#fff597"/></linearGradient><linearGradient id="AM" x1="591.415" x2="603.342" y1="361.653" y2="361.944" spreadMethod="pad" href="#Ae"><stop offset="0%" stop-color="#204658"/><stop offset="100%" stop-color="#1b3749"/></linearGradient><linearGradient id="AN" x1="599.196" x2="628.983" y1="354.129" y2="354.856" spreadMethod="pad" href="#Ae"><stop offset="0%" stop-color="#ffcd85"/><stop offset="100%" stop-color="#fff597"/></linearGradient><linearGradient id="AO" x1="599.246" x2="602.915" y1="351.918" y2="352.008" spreadMethod="pad" href="#Ae"><stop offset="0%" stop-color="#204658"/><stop offset="100%" stop-color="#1b3749"/></linearGradient><linearGradient id="AP" x1="548.171" x2="581.305" y1="369.77" y2="370.579" spreadMethod="pad" href="#Ae"><stop offset="0%" stop-color="#ffcd85"/><stop offset="100%" stop-color="#fff597"/></linearGradient><linearGradient id="AQ" x1="564.558" x2="581.316" y1="369.732" y2="370.141" spreadMethod="pad" href="#Ae"><stop offset="0%" stop-color="#204658"/><stop offset="100%" stop-color="#1b3749"/></linearGradient><linearGradient id="AR" x1="357.829" x2="822.417" y1="533.26" y2="533.26" spreadMethod="pad" href="#Ae"><stop offset="0%" stop-color="#8a8a8a"/><stop offset="100%" stop-color="#fff"/></linearGradient><radialGradient id="AS" cx="0" cy="0" r=".706" gradientTransform="translate(.5 .5)" spreadMethod="pad"><stop offset="56%" stop-color="rgba(26,26,36,0)"/><stop offset="100%" stop-color="#1a1a24"/></radialGradient><radialGradient id="AT" cx="0" cy="0" r="38.448" gradientTransform="rotate(-30.809 945.047 -871.578)" spreadMethod="pad" href="#Ae"><stop offset="0%" stop-color="#dbf2fa"/><stop offset="100%" stop-color="#ffdfe5"/></radialGradient><radialGradient id="AU" cx="0" cy="0" r="23.841" gradientTransform="rotate(-22.968 1158.821 -1305.821)" spreadMethod="pad" href="#Ae"><stop offset="0%" stop-color="#dbf2fa"/><stop offset="100%" stop-color="#ffdfe5"/></radialGradient><radialGradient id="AV" cx="0" cy="0" r="39.402" gradientTransform="rotate(-30.809 969.097 -830.939)" spreadMethod="pad" href="#Ae"><stop offset="0%" stop-color="#dbf2fa"/><stop offset="100%" stop-color="#ffdfe5"/></radialGradient><path id="AW" d="M517.68 553.5c0-7.87-33.89-7.96-33.89-11.56s26.68-6.49 26.68-6.49H216.96c0 4.52 2.14 10.23 12.15 13.77s58.61 2.47 58.61 10.92c0 7.47-14.47 4.57-14.47 11.06s14.61 7.52 21.98 7.52c17.51 0 21.08 17.11 21.08 30.68v275.25h109.83V609.01c0-12.43 5.69-24.14 21.24-26.49-9.09 4.74-9.09 15.98-9.09 26.49v275.64h10.96V609.01c0-12.98 5.6-27.31 22.75-28.88 11.18-1.27 20.53-2.97 20.53-5.62 0-4.41-7.07-4.64-7.07-9.56 0-4.91 32.22-3.58 32.22-11.45Z"/><path id="AX" d="M-1.756 0h1002.095v1000H-1.756z"/><path id="AY" d="M576.9 318.46c4.5-8.25 9.37-6.6 15.3-6.6 13.62 0 15.2-14.06 25.92-14.06 2.99 0 6.1 1.12 8.95 1.12 8.61 0 11.47-13.55 20.29-13.55 8.26 0 10.3 10.99 13.61 18.31 9.63 2.44 17.71 6.25 19.79 14.79H576.9Z"/><path id="AZ" d="M610.16 277.94c-4.08-7.29-10.61-2.59-15.97-6.37-12.97-9.17-5.91-15.72-27.12-15.79-7.36-7.96-8.91-20.17-22-20.05-16.12.14-6.48 24.94-21.79 24.94-2.53 0-5.12-.79-7.61-.79-11.99 0-4.1 12.04-33.26 12.04-6.25 0-14.27.77-17.35 6.02h145.1Z"/><path id="Aa" d="M380.25 352.81c2.77-7.3 8.12-3.59 13.44-7.35 7.69-5.43 5.72-14.9 20.53-14.9h.5c16.07 0 15.11-16.35 27.5-16.35 12.21 0 10.83 14.69 18.96 19.76 8.42 5.25 25.25 5.56 25.25 18.84H380.25Z"/><path id="Ab" d="M277.83 762.95h197.26v95.06c-22.87 0-21.92-19.23-32.88-19.23s-17.75 19.52-34.6 19.52-20.85-12.42-31.89-12.42c-11.05 0-15.69 8.14-25.34 8.14s-10.01-9.34-22.16-9.34-10.36 9.34-23.47 9.34c-21.2 0-26.92-91.07-26.92-91.07Z"/><path id="Ac" d="M277.83 692.74h197.26v95.06c-22.87 0-21.92-19.23-32.88-19.23s-17.75 19.52-34.6 19.52-20.85-12.42-31.89-12.42c-11.05 0-15.69 8.14-25.34 8.14s-10.01-9.34-22.16-9.34-10.36 9.34-23.47 9.34c-21.2-.01-26.92-91.07-26.92-91.07Z"/><path id="Ad" d="M263.42 546.4h231.8v95.06c-26.88 0-25.76-19.23-38.63-19.23s-12.25 19.52-32.06 19.52-23.13-16.4-36.11-16.4c-15.43 0-20.77 14.46-33.59 14.46-11.34 0-9.66-8.85-23.94-8.85s-14 15.64-29.4 15.64c-24.91-.01-38.07-100.2-38.07-100.2Z"/><linearGradient id="Ae" gradientUnits="userSpaceOnUse"/></defs><circle r="259.66" fill="#a9f1cd" cx="308.77" cy="698.17"/><circle r="265.02" fill="url(#A)" transform="translate(358.94 301.91)"/><circle r="260.62" cx="661.69" cy="492.44" class="H"/><circle r="66.12" fill="url(#B)" transform="translate(736.82 118.29)"/><g mask="url(#Ag)"><use href="#AX" fill="#1a1a24"/><circle r="265.02" fill="url(#A)" transform="translate(358.94 301.91)"/><circle r="260.62" cx="661.69" cy="492.44" class="H"/><path fill="url(#C)" d="M761.88 83.47 181.67 780.05 36.4 621.12 761.88 83.47z" style="mix-blend-mode:screen" transform="rotate(351.938 745.567 116.052)" class="G"/><path fill="url(#D)" d="M761.88 83.47 186.62 703.48l-50.7-30.77L761.88 83.47z" style="mix-blend-mode:screen" transform="rotate(349.187 737.66 114.471)" class="G"/><path fill="url(#E)" d="M761.88 83.47 272.57 847.5l-50.7-30.78L761.88 83.47z" style="mix-blend-mode:screen" transform="rotate(5.55 739.573 111.13)" class="G"/><path fill="url(#F)" d="M761.88 83.47 114.86 633.71 36.4 514.37l725.48-430.9z" style="mix-blend-mode:screen" transform="rotate(353.94 759.609 91.091)" class="G"/><g transform="translate(252.236)"><use href="#AY" fill="url(#G)"/><use href="#AZ" fill="url(#H)"/><use href="#Aa" fill="url(#I)"/></g><g transform="translate(-147.765)"><use href="#AY" fill="url(#G)"/><use href="#AZ" fill="url(#H)"/><use href="#Aa" fill="url(#I)"/></g><path fill="url(#J)" d="M1000.28 241.527c1.22-11.68-.561-228.877-.561-241.287-56.824 2.5-186.892.438-324.472.438C561.037.678 481.25 4.02 481.25 134.45c0 31.49 22.51 44.34 50.7 44.34 6.41 0 13.11-.66 19.91-1.92-4.46 6.28-14.92 23.45-14.92 34.87 0 5.86 2.75 10.21 10.49 10.79.02.48.03.95.03 1.42 0 6.98-2.34 13.53-2.34 20.45 0 11.04 5.87 20.13 18.5 20.13 15.43 0 35.91-12.85 43.69-21.67 1.98 11.07-.24 40.6 13.15 40.6 3.76 0 8.74-2.32 15.39-8.03 2.28 23.56 10.47 33.35 20.95 33.35 11.23 0 25.1-11.24 37.14-28.81-.38 4.33-.56 8.32-.56 11.99 0 25 8.54 35.01 22.13 35.01 12.52 0 29.34-8.5 47.71-21.6 12.55 13.91 74.53 45.468 139.59-17.386 41.946 20.03 93-3.757 97.47-46.457Z" transform="matrix(1.02108 0 0 .97217 -21.055 .08)"/><path stroke="url(#K)" stroke-width="4" d="M651.05 149.29c-2.925 11.051 4.696 66.875 3.86 140.59-.836 72.415-4.25 124.75-4.153 143.19" class="B E"/><path fill="url(#L)" d="M520.05 79.7c-17.73 15.13-44.76 52.73-44.76 78.76 0 13.48 11.07 20.9 24.03 20.9 9.53 0 16.36-3.51 38.02-12.9 2.58 9.63-3.34 39.81 21.85 39.81 14.02 0 30.83-11.28 39.36-19.88.33 7.64-3.81 41.19 18.82 41.19 15.69 0 35.97-18.53 43.85-28.31 2.47 16.41 2.41 42.18 33.33 25.59 4.62 6.82 7.44 20.1 18.71 20.1 18.02 0 33.81-29.91 40.12-39.48-9.38 46.53 17.88 66.82 39.77 22.08 12.58 3.26 23.11 15.34 36.83 15.34 19.39 0 36.13-13.93 36.13-40.41 0-115.26-204.99-243.17-346.06-122.79Z" transform="matrix(1.1066 0 .05645 1 -79.506 0)"/><path fill="url(#M)" d="M276.74 311.96c-5.7-35.31 27.32-85.64 64.2-85.64 51.54 0 46.54 65.92 50.05 78.71 45.08-17.71 91.02-6.54 82.49 48.3.32.45.66.85 1.01 1.3 29.29 1.69 42.59 25.17 38.84 53.64 33.56.89 40.52 37.54 41.94 64.36 32.57 2.35 47.68 32.84 47.68 64.27 0 44.38-22.92 74.03-70.16 74.03-75.59 0-184.59-114.84-215.9-185-16.38-36.72-33.75-74.3-40.15-113.97Z" transform="matrix(1 0 -.0278 .98603 18.506 -4.708)"/><path fill="url(#N)" d="M311.88 323.98c8.9-12.15 37.89-28.05 37.89-7.35 0 10.87-7.18 27.48-10.53 33.34 15.11-21.23 55.97-32.72 55.97 3.19 0 13.92-9.73 26.46-13.7 39.37 13.47-26.97 72.23-45.51 60.3-.14 4.76-1.3 10.11-2.79 15.16-2.79 10.92 0 17.36 9.06 17.36 17.34 0 12.15-13.43 22.63-17.84 33.72 18.16-5.91 28.04-3.65 28.16 15.64 42.81-1.85 54.57 20.12 34.64 55.65 16.88-3.32 29.99-.75 22.56 14.76 11.14 4.5 33.25.52 33.25 27.12 0 43.91-40.46 30.49-76.07 30.54-93.36.12-185.21-10.42-278.18.44-11.7-20.62-227.234 7.847-227.234-14.903l-2.668-257.514c0-45.25 237.462-19.943 296.362-19.943 12.76-.01 23.14 8.95 24.57 31.53z" transform="matrix(1 0 -.05645 1 32.138 -10.703)"/><g transform="matrix(.99207 0 0 1 16.567 7.428)"><path fill="url(#O)" d="m370.94 226.79-3.83 226.95h35.23l-9.62-232.31z"/><path fill="url(#P)" d="M391.11 275.55c-3.21 1.66-5.92 6.35-3.52 10.93 1.79 3.41 5.82 4.14 7.6 2.73 29.66-23.31 64.807-67.518 75.787-94.068l-3.29-4.67c-15.32 27.73-58.867 75.898-76.577 85.078Z"/></g><g class="B E C D"><path stroke="url(#Q)" d="M317.903 224.42c46.39 61.27 130.357 111.41 221.497 111.41 151.5 0 240.909-90.723 278.183-174.786" transform="matrix(.99207 0 0 1 6.25 0)" class="F"/><path stroke="url(#R)" stroke-width="6" d="M875.36 279.77S689.93 372.28 557.43 312c-52.36-23.83-91.26-55.82-119.15-85.82 0 0-1.79 8.7 5.16 14.12-3.69 3.18-9.96-4.08-9.96-7.37-2.63 6.54-.13 12.41 4.34 13.56v46.72" transform="matrix(.99207 0 0 1 16.567 7.428)"/></g><g fill="#333d4e"><path d="M475.786 257.88c.505 2.62 8.879 2.45 8.879 0s-9.276-2.05-8.88 0zm1.349 1.94c-2.51.85-1.23 9.19 1.18 8.87 2.411-.33.784-9.54-1.18-8.87z"/></g><path fill="#353e56" d="M510.419 284.2c1.478 2.93 11.329-.13 10.506-3.03s-11.657.74-10.506 3.03Z"/><path fill="#384069" d="M599.335 328.082c1.479 2.93 11.33-.13 10.506-3.03s-11.666.74-10.506 3.03Z"/><path fill="#49438e" d="M668.465 329.14c1.478 2.93 11.33-.13 10.506-3.03-.824-2.91-11.667.73-10.506 3.03Z"/><path fill="#384069" d="M596.786 328.962c3.145.85 7.49-8.57 4.791-9.9-2.688-1.33-7.261 9.22-4.791 9.9Z"/><g fill="#353e5b"><path d="M523.742 294.61c-3.085 1.05-1.518 11.32 1.448 10.92 2.977-.4.983-11.74-1.448-10.92Z"/><path d="M522.621 296.87c-2.788-1.17-7.917 6.95-5.605 8.5 2.311 1.54 7.788-7.58 5.605-8.5Z"/></g><path fill="url(#S)" d="M242.307 320.832c-10.844-37.245 14.545-73.826 51.993-42.892 19.43 0 35.08 10.09 35.08 30.19 0 10.93-4.63 21.75-5.98 32.86 10.04-9.94 27.86-12.74 32.89-12.74 18.55 0 11.99 22.84 5.96 40.45 16.39-6.36 33-8.73 33 8.86 0 18.28-20.87 55.41-17.65 48.65 5.65-.97 22.28-23.83 37.11-23.83 6.55 0 11.22 3.51 11.22 9.34 0 7.36-6.79 13.29-10.16 20.66 46.49-16.87 16.75 20.88 9.56 36.8 10.79-4.02 20.4-6.26 28.57-6.26 19.02 0 27.624 22.268 27.954 52.038-22.19 0-400.535 107.195-325.206-45.184-24.703-40.1-7.312-83.119 34.473-79.054-20.893-26.847-3.62-83.057 51.186-69.888Z" transform="matrix(1.29824 0 .06805 1.20553 -156.01 -70.991)"/><path fill="url(#T)" d="M242.07 383.42c7.87-26.06 21.68-55.05 49.02-55.05 8.91 0 16.48 4.47 16.48 16.48 0 12.18-10.67 28.75-9.32 30.24 21.49-4.72 17.68 17.43 7.84 35.83 11.45-11.8 40.42-23.33 16.4 29.53 5.6-7.1 19.59-16.81 30.91-16.81 10.75 0 15.75 9.47 15.75 18.76 0 8.41-4.04 16.23-4.09 24.84 41.5 7.25 53.697 38.052 26.587 70.452 27.43-7.92-162.323 24.971-248.302 13.332-48.726-2.085-40.11-39.979 11.724-86.474-27.645-18.68-9.102-85.45 26.492-79.478 7.4-25.753 45.49-30.89 60.509-1.652Z" transform="matrix(1.02744 0 0 .95185 -7.462 25.731)"/><path fill="url(#U)" d="M801.32 282.62c-2.43-13.68-19.2-52.26-36.16-52.26-14.44 0-20.72 24.09-20.72 41.56 0 17.22 3.98 35.63 7.56 48.43-8.12-18.38-23.47-33.83-33.93-33.83-6.38 0-10.94 5.74-10.94 20.07 0 3.34.25 7.14.78 11.44-8.34-4.33-14.97-6.21-20.15-6.21-11.74 0-16.04 9.66-16.04 22.33 0 16.68 7.46 38.56 15.22 50.46-12.6-12.16-33.11-32.99-65.52-32.99-9.15 0-16.25 3.16-16.25 12.68 0 19.03 22.63 41.75 36.86 54.29-12.71-4.01-24.24-5.73-34.22-5.73-24.67 0-39.83 10.52-39.83 22.97 0 11.39 12.71 24.4 42.46 32.44-17.85 4.31-25.53 15.07-25.53 26.48 0 32.74 38.51 37.94 67.18 37.94 82.25 0 220.36-43.93 220.36-125.84 0-53.98-52.64-85.79-58.72-94.6-6.48-9.37-10.49-18.84-12.41-29.63Z" transform="matrix(1.0129 0 .03576 .95096 -28.35 26.129)"/><path fill="url(#V)" d="M637.681 465.533c-17.33-7.51-30.12-30.01-30.12-50.15 0-24.73 19.19-36.52 40.11-36.52 15.33 0 29.7 7.04 44.66 13.78-2.78-8.23-4.19-14.94-4.19-20.19 0-9.94 5.08-14.66 15.61-14.66 4.59 0 10.21.9 16.89 2.65-.81-5.28-1.25-10.34-1.25-14.99 0-15.32 4.78-26.21 16.69-26.21 5.36 0 12.16 2.21 20.61 7.2 2.76-31.69 20.07-45.74 42.67-45.74 34.91 0 145.547 49.752 145.547 154.102 0 114.83-100.547 128.918-228.407 128.918-53.51 0-116.66-.5-116.66-55.28-.02-20.59 15.65-33.59 37.84-42.91Z" transform="matrix(1 0 -.05645 1 24.575 0)"/><path fill="url(#W)" d="M566.94 535.46c-.36-9.38-1.25-17.83-1.25-25.08 0-16.99 4.89-27.4 32.98-27.79.46-1.3 4.85-45.98 41.56-45.98 20.94 0 42.47 17.37 53.22 37.74 8.94-11.53 19.66-17.61 29.59-17.61 11.01 0 21.06 7.46 26.69 23.21 3.65-.98 7.07-1.43 10.26-1.43 32.2 0 234.762 56.203 240.952 83.693l-.556 436.986-1001.68-7.25v-455.17l568.234-1.319Z" transform="matrix(1 0 0 .9644 0 19.06)"/><path fill="url(#X)" d="M814.049 613.23c-17.79 1.04-28.67 1.742-44.44 1.742-39.47 0-47.49 1.49-60.996.436 0-9.3-.25.978.217.412-34.01-16.07-49.56-41.33-49.56-72.65 0-26.82 15.98-45.42 38.15-45.42 8.12 0 17.08 2.5 26.38 8-1.63-4.81-6.26-14.84-6.26-22.09 0-7.95 7.6-12.7 15.59-12.7 9.92 0 21.39 6.09 28.36 10.14 4.36-12.27 10.94-16.74 18.34-16.74 11.6 0 25.19 11.02 35.34 20.19 6.89-13.72 16.41-19.05 26.86-19.05 32.34 0 90.1 55.06 90.1 122.84-9.15 20.92-60.964 25.325-100.654 25.325-3.19.01-14.147-.066-17.427-.436Z" transform="matrix(1 0 -.05977 1.0588 33.506 -36.03)"/><g transform="matrix(1 0 .02765 .9805 -13.878 9.783)"><path stroke="url(#Y)" d="M639.93 428.76c4.87-1.23 9.66-1.8 14.35-1.8 42.96 0 78.1 47.84 96.78 79.32" transform="translate(-6.236 4.794)" class="B C D E F"/><g fill="#b8ba81"><path d="M636.944 431.254c-3.87-2.43-13.91 1.17-13.91 3.48 0 2.91 12.59 3.64 13.91-3.48zm12.626.201c-3.18-.541-6.626-6.001-6.626-8.751 0-5.65 11.531 5.735 6.627 8.75zm18.076 2.723c-2.953-1.38-5.362-4.694-5.362-8.574-.01-10.02 12.123 5.519 5.362 8.574zm15.638 7.226c-1.26-3.26-3.53-6.35-3.53-9.51 0-1.78 1-3.96 2.68-3.96 3.95 0 8.76 11.6.85 13.47zm2.53 4.4c-6.39 0-18.75 9.95-8.21 9.95 10.85-.01 14.35-9.95 8.21-9.95zm-14.466-8.769c-11.1.28-14.254 10.629-8.714 10.629 4.22 0 11.966-5.624 10.576-9.364-.29-.8-1.192-.825-1.862-1.265zm-17.934-4.441c-2.21.37-11.55 4.64-11.55 8.32 0 1.46 1.7 2.77 3.15 2.77 4.05 0 7.84-8.54 8.4-11.09zm47.49 23.17c-7.25-.95-13.9 3.74-13.9 6.07 0 3.6 14.68 2.04 13.9-6.07zm10.14 13.71c-11.31-1.05-15.2 8.81-1.49 8.81 4.05 0 11.53-.87 9.92-4.59-.72-1.69-3.26-3.74-8.43-4.22zm-14.04-19.12c-.56-.87-1.23-3.99-1.23-8.37 0-8.23 7.7-7.42 7.14 1.35-.28 4.33-4.57 6.77-5.91 7.02zm15.2 14.79c-1.66-2.19-1.89-13.74 2.9-13.74 4.8 0 6.08 16.86-2.9 13.74zm12.83 15.7c-.43-1.7 1.84-12.54 4.73-12.54 4.7 0 6.94 15.59-1.57 15.59-1.26 0-2.18-1.94-3.16-3.05zm5.17 7.47c-25.48-9.46-8.19 13.42 2.16 3.63-.26-1.21-1.35-2.72-2.16-3.63zm8.61 11.3c-1.06-1.98.42-12.15 4.38-12.15 4.12-.01 3.28 12.82-4.38 12.15zm2.88 5.94c-5.32-2.31-15.95-5.24-15.95.35 0 4.59 14.81 5.76 15.95-.35z"/></g><path stroke="url(#Z)" d="M712.47 425.85c24.28 22.6 38.46 47.77 52.24 78.25" transform="rotate(354.23 764.672 504.536)" class="B C D E F"/><path fill="#dc6b71" d="M700.004 427.561s-1.332-15.072 5.338-13.816c6.669 1.245 3.1 15.466 3.1 15.466s12.227-6.622 15.054-1.52-12.62 8.601-12.62 8.601 5.174 11.016-1.376 12.834-5.926-11-5.926-11-4.642 13.143-11.368 9.44c-6.728-3.712 3.018-12.004 6.373-13.117-10.63-.463-10.753-5.456-8.526-8.184 2.226-2.738 7.467-2.302 9.95 1.296Z"/><path fill="url(#a)" d="M999.941 514.943c.094-56.776-87.137-122.93-174.641-51.843-18.05 0-36.97 6.64-37.21 28.15-5.87-4.02-12.16-5.79-18.27-5.79-17.75 0-34.01 14.89-34.01 32.66 0 3.94.8 8.02 2.56 12.11-.58-.05-1.16-.08-1.74-.08-19.64 0-34.2 29.17-34.2 50.67 0 36.39 16.825 34.44 55.965 34.44l242.06-2.622-.514-97.183" transform="matrix(1 0 .05645 1 -34.59 0)"/><path stroke="url(#b)" d="M740.81 391.38c29.18 13.11 62.31 92.86 73 118.82" transform="rotate(358.998 821.392 509.926)" class="B C D E F"/><path fill="#6f97bb" d="M723.66 397.481c.778 3.257 7.94 3.872 11.236 3.604 8.26-.664 14.079-5.877 13.93-14.436-.079-4.459-.931-10.315-4.91-10.245-2.71.047-5.684 6.16-10.536 10.655-2.825 2.59-10.507 7.135-9.72 10.422Z"/><path fill="url(#c)" d="M741.766 392.253c.178 2.592 2.349 2.293 2.764.388 2.042 1.576 2.727-2.73.106-2.44.62-.218 1.632-.65 1.111-2.423-.466-1.306-2.922-1.324-3.306 2.191-1.865-1.275-2.99 1.649-.675 2.284Z" transform="rotate(358.998 524.504 837.607)"/><path stroke="url(#d)" d="M757.32 448.11c30.39 16.51 44.22 48 56.92 78.22" transform="rotate(3.746 813.653 523.174)" class="B C D E F"/><path fill="#60ba81" d="M763.406 445.23c.223-2.02-5.003-10.37-10.042-10.7-8.382-.548.443 12.817 10.042 10.7zm7.997 4.903c-1.222-2.616-.862-13.926 2.042-13.736 3.103.203 5.54 15.174-2.042 13.736zm8.743 8.65c.026-3.145 2.104-13.15 4.45-12.997 3.063.19 3.302 18.124-4.45 12.997zM771 452.471c-4.328-2.017-16.972.072-17.16 2.945-.41 6.257 26.991 1.628 17.16-2.945zm4.965 10.779c-8.392-.55-9.717 7.14 1.729 7.889 9.639.631 11.573-7.019-1.729-7.89zm14.918 9.394c-1.351-3.235 3.217-14.992 4.973-14.877 5.689.363 3.414 20.096-4.973 14.877z"/><path stroke="url(#e)" d="M782.18 402.87c14.52 31.02 26.67 66.83 32.73 100.35" class="B C D E F"/><path fill="#ffba81" d="M789.68 400.12c.92 4.82-11.95 10.87-15.17 7.66-5.64-5.64 13.9-14.3 15.17-7.66Z"/></g><path fill="url(#f)" d="M463.02 907.07c63.95-47.3 105.42-123.26 105.42-208.9 0-67.22-25.54-128.47-67.45-174.58-3.32-19.9.47-53.84-14.57-53.84-4.86 0-14.8 7.85-15.89 25.29-34.47-14.8-27.84 36.52-28.2 44.18 0 0 39.29.39 40.1 3.73.38 1.54 8.41 2.78 12.79 3.46 14.81 2.3 21.03 2.72 21.03 7.58s-13.28 6.11-21.31 6.68c-7.39.53-14.17 3.69-12.29 5.58 1.88 1.88 5.63 2.73 7.19 4.29s9.06 8.11-2.96 11.41c-8.77 2.41-20.13 6.45-21.41 19.72-1.27 13.27-2.45 305.4-2.45 305.4Z"/><g clip-path="url(#Af)"><g transform="matrix(1.35 0 0 1 -131.761 157.224)"><path fill="url(#g)" d="M277.83 832.66h197.26v95.06c-22.87 0-21.92-19.23-32.88-19.23S424.47 928 407.61 928s-20.85-12.42-31.89-12.42c-11.05 0-15.69 8.14-25.34 8.14s-10.01-9.34-22.16-9.34-10.36 9.34-23.47 9.34c-21.2 0-26.92-91.06-26.92-91.06Z"/><use href="#Ab" fill="url(#h)"/><use href="#Ac" fill="url(#i)"/><path fill="url(#j)" d="M277.83 621.34h197.26v95.06c-22.87 0-21.92-19.23-32.88-19.23s-17.75 19.52-34.6 19.52-20.85-12.42-31.89-12.42c-11.05 0-15.69 8.14-25.34 8.14s-10.01-9.34-22.16-9.34-10.36 9.34-23.47 9.34c-21.2 0-26.92-91.07-26.92-91.07Z"/></g><use href="#Ad" fill="url(#k)" transform="matrix(1.35 0 0 1 -132.762 157.224)"/><path fill="url(#g)" d="M277.83 832.66h197.26v95.06c-4.016 0-10.837-5.173-21.797-5.173s-13.454 16.43-30.314 16.43-25.436-16.43-36.476-16.43c-11.05 0-16.256 13.782-30.694 14.173s-13.385-8.011-26.841-8.402-18.664-11.529-31.774-11.529c-21.2 0-19.364-84.129-19.364-84.129Z" transform="matrix(1.34677 0 0 1 -130.544 -139.776)"/><g transform="matrix(1.34677 0 0 1 -130.544 -142.776)"><use href="#Ab" fill="url(#h)"/><use href="#Ac" fill="url(#i)"/><path fill="url(#j)" d="M277.83 621.34h197.26v95.06c-22.87 0-21.92-19.23-32.88-19.23s-17.75 19.52-34.6 19.52-20.85-12.42-31.89-12.42c-11.05 0-15.69 8.14-25.34 8.14s-10.01-9.34-22.16-9.34-10.36 9.34-23.47 9.34c-21.2 0-26.92-91.07-26.92-91.07Z"/></g><use href="#Ad" fill="url(#k)" transform="matrix(1.34677 0 0 1 -131.536 -142.776)"/><path fill="url(#l)" transform="translate(209.87 535.46)" d="M0 0h330.15v60.97H0z"/><clipPath id="Af"><use href="#AW" width="300.72" height="349.2"/></clipPath></g><g fill="#fff"><circle r="40.69" transform="matrix(.93279 0 0 .93279 344.316 830.398)"/><circle r="40.69" transform="matrix(1.02946 0 0 1.02946 416.735 852.16)"/><circle r="40.69" transform="matrix(.8952 0 0 .8952 430.902 819.12)"/><circle r="40.69" transform="matrix(.83374 0 0 .83374 462.156 836.538)"/><circle r="40.69" cx="372.17" cy="833.264"/><circle r="23.2" transform="matrix(1.17189 0 0 1.17189 367.748 795.75)"/><g transform="matrix(.72119 0 0 .72119 99.157 253.661)"><g transform="matrix(2.09917 0 0 2.09917 -524.872 -903.779)"><circle r="5.12" transform="matrix(.47592 0 0 .47592 472.47 808.36)"/><circle r="3.34" transform="matrix(.47592 0 0 .47592 489.27 777.98)"/><circle r="2.42" transform="matrix(.47592 0 0 .47592 460 766.1)"/></g><g transform="matrix(2.61497 0 0 2.61497 -454.974 -1333.61)"><circle r="5.12" transform="matrix(.47592 0 0 .47592 293.2 794.42)"/><circle r="3.34" transform="matrix(.47592 0 0 .47592 276.41 764.05)"/><circle r="2.42" transform="matrix(.47592 0 0 .47592 305.67 752.17)"/></g></g></g><path fill="url(#m)" d="M879.183 243.774c27.878 33.303 114.094 18.746 114.094 6.336L961.734 67.52c-120.97 16.033-437.375 66.688-566.6 85.543 0 31.49 27.354 25.727 60.224 25.727 7.474 0 15.287-.66 23.216-1.92-5.201 6.28-17.398 23.45-17.398 34.87 0 5.86 3.207 10.21 12.232 10.79a29.57 29.57 0 0 1 .035 1.42c0 6.98.95 10.203.95 17.123 0 11.04 10.365 23.358 25.092 23.358 17.991 0 34.673-12.751 43.745-21.571 2.308 11.07 2.906 27.87 18.52 27.87 4.384 0 9.88 4.227 17.635-1.483 2.658 23.56 12.35 27.903 24.57 27.903 13.095 0 29.43-10.652 40.287-17.18-.443 4.33-.653 8.32-.653 11.99 0 25 9.958 35.01 25.805 35.01 14.598 0 34.21-8.5 55.63-21.6 14.634 13.91 32.428 19.73 50.933 19.73 54.22-.01 98.014-38.626 103.226-81.326z" transform="rotate(188.705 518.337 569.9)"/><path fill="url(#n)" d="M778.6 571.13c-15.32 22.98-102.13-33.7-128.17-47.49s-46.31-9.55-74.99 11.82c-28.67 21.37-49.13 35.67-60.35 35.67s-16.11 5.23 14.74 5.23c10.42 0 38.06.46 38.12 9.21s-87.16-14-88.3 29.47c-.77 29.28 59.64 1.95 95.79 47.91 9.52 12.11 32.6 16.95 42.82-3.48s.51-46.47 23.49-55.15c15.513 18.2 178.672 13.498 202.902 8.898 6.029-52.008-31.259-68.796-66.052-42.088Z"/><g stroke="#a8e9f0" class="B C D J"><path d="M623.87 672.78c32.181 6.403 50.743-31.856 109.79 5.985 15.299 9.797 28.768 22.74 38.202 35.314M592.596 566.764c3.886 2.353 7.422 4.89 10.116 7.139 30.596 25.56 35.18 66.637 66.145 90.035"/></g><path fill="#a8e9f0" d="M557.525 560.373c.332 10.408 28.376 16.845 34.986 6.522 11.33-17.674-35.612-26.212-34.986-6.522zm68.065-43.97c15.092 9.672 9.887 45.937-6.562 35.395-16.35-10.474-10.904-46.588 6.562-35.395zm-3.237 182.568c-10.023 6.41-9.761 15.184-3.309 19.318 15.213 9.747 36.602-16.246 23.686-24.522-2.81-1.8-7.231-2.194-13.368-.15-2.894.96-4.496 3.746-7.009 5.354z"/><path stroke="#a8e9f0" d="M609.52 610.042c3.655 1.284 6.71 3.025 10.241 5.28l6.702 4.356c4.167 2.672 8.556 5.266 12.865 6.802m-16.172-73.063c-.602 11.58-6.316 16.815-7.364 34.032m32.211-3.354c-7.53 6.437-13.73 14.694-19.427 22.77m41.977 42.83c2.386 4.411 5.918 8.562 9.924 12.3m-39.735 30.838c1.867-6.86 2.284-14.125 5.103-21.604m68.195 12.103c8.862-1.1 18.886-.125 28.733 1.789m-34.913-57.743c-1.5 17.644.473 30.832 2.318 39.28" class="B C D J"/><path fill="#a8e9f0" d="M647.388 572.443c-3.222 5.02-.82 11.859 3.904 14.885 11.549 7.397 37.47-12.866 24.129-21.413-7.275-4.677-22.952-1.4-28.033 6.528zm-38.856 39.555c11-17.16-25.692-19.764-32.245-9.549-7.464 11.657 24.459 21.699 32.245 9.549zm-18.195 56.007c4.303 5.91 24.813 18.754 32.608 6.592 9.036-14.107-23.031-32.705-32.694-17.624-2.445 3.797-2.34 7.693.086 11.032zm69.462-47.94c-5.205 8.317-1.483 25.078 4.631 29.002 3.926 2.51 8.111.575 10.605-3.319 5.097-7.96 2.621-23.928-4.411-28.434-3.488-2.231-8.24-1.385-10.825 2.751zm47.334 6.898c11.571 7.414 22.698-25.68 9.082-34.404-13.112-8.394-23.747 25.013-9.082 34.404zm-6.63 72.883c4.83-2.75 9.128-4.426 11.715-8.462 2.51-3.925 3.11-9.208-.771-11.693-6.933-4.438-25.965.813-30.345 7.638-6.677 10.442 4.72 20.87 19.401 12.517z"/><g transform="rotate(4.575 453.021 893.204)"><path stroke="#92ddc3" d="M479.65 766.3s-17.43 26.14-19.73 48.95c-2.27 22.58 6.4 48.73-5.9 81" class="B C D E K"/><g transform="rotate(293.847 828.1 14.955)"><ellipse rx="13.89" ry="33.28" class="H"/><ellipse fill="#82229b" rx="5.45" ry="13.06"/></g><path fill="url(#o)" d="M459.2 873.43c-36.24-5.81-50.59-54.68-37.86-66.49-16.56-50.99 14.39-57.08 24.58-21.36 4.85 16.98 3.32 33.63 3.43 49.12 2.11 14.8 4.69 22.5 9.85 38.73Z" transform="rotate(356.779 454.055 874.447)"/></g><path fill="url(#p)" d="M391.24 226.8c3.24 12.9 10.15 18.08 17.57 18.08 11.32 0 23.82-12.06 26.32-27.23 8.95 9.67 19.74 16.02 28.72 16.02 9.22 0 16.52-6.71 17.92-23.41 15.44-3.81 26.96-9.25 27.99-26.27 42.62 10.196 65.59-52.232 19.208-70.487 39.561-24.957 14.528-69.25-16.802-83.653l-539.03-59.914-41.223 311.542c32.892-12.61 376.457 24.682 382.117-14.308 15.32 10.9 24.08 2.33 30.6-15.22 19.39 24.92 45.94-.14 46.61-25.15z" transform="matrix(.93835 -.116 .12171 .9845 29.9 30.897)"/><path fill="url(#q)" d="M778.41 630.69c-34.16-16.13-75.55.14-64.22 42.55-20.48-4.44-25.68 8.2-24.65 29.04-30.79-16.99-46.98 20.34-36.67 46.23-22.7-32.15-50.23.29-46.57 30.12-3.4-3.31-13.63-23.4-30.4-16.2-7.44 3.19-12.12 11.66-9.65 21.73-20.94 12.84-35.04 40.7-15.93 60.25-29.75 14.24-33.37 40-22.83 64.56 31.53 73.49 137.23 72.334 210.17 41.034 90.21-38.7 135.178-175.787 99.228-259.587 17.931-67.633-26.006-79.957-58.478-59.727Z" transform="matrix(1 0 .05437 .96321 -50.674 34.285)"/><path fill="url(#r)" d="M769.71 684.92c-13.55 5.81-14.01 23.55-9.96 37.94-22.26-6.14-28.75 10.19-22.09 31.8-42.59-13.83-50.31 11.56-27.75 48.14-33.83-18.28-56.17 7.75-51.47 45.59-9.88 2.52-20.14 2.44-29.39 6.41-61.04 26.19 57.471 178.092 226.791 105.452 99.39-42.64 48.66-287.387-34.1-242.15-10.38-24.19-27.841-43.552-52.031-33.182Z" transform="matrix(1 0 -.05545 .98242 53.017 16.81)"/><g transform="rotate(3.899 615.058 930.877)"><g transform="rotate(358.422 643.196 919.26)"><path fill="url(#s)" d="M613.27 869.78c8.75-9.52 16.81-19.2 22.27-33.49-17.21 2.99-28.79 24.44-22.27 33.49Z"/><path fill="url(#t)" d="M601.15 825.6c-5.05-9.08-9.58-18.17-11.63-30.6 12.03 5.1 17.54 24.28 11.63 30.6Z"/><path stroke="url(#u)" d="M607.17 798.82c-7.76 18.38-11.04 44.94 5.23 69.02 14.81 21.93 30.72 44.59 30.72 53.64" class="B C D E L"/><path fill="url(#v)" d="M605.56 800.21c8.33-2.25 16.33-4.84 24.5-10.95-10.77-4.46-24.95 3.51-24.5 10.95Z"/><path fill="url(#w)" d="M625.17 886.18c-13.37-3.56-31.47-15.87-48.14-14.4 10.6 13.99 42 24.21 48.14 14.4Z"/></g><path stroke="url(#x)" d="M674.24 767.32s18.04 12.16 21.64 37.73c2.84 20.18-18.42 54.32-36.16 83.37-14.46 23.68-31.52 61.93-23.07 85.7" class="B C D E L"/><path fill="url(#y)" d="M682.78 773.93c-14.57 1.54-28.88 2.39-46.13-1.82 13.26-12.79 41.2-9.34 46.13 1.82Z"/><path fill="url(#z)" d="M674.24 767.32c-2.05-8.91-4.46-17.48-10.59-26.38-5.15 11.22 2.71 26.55 10.59 26.38Z"/><path fill="url(#AA)" d="M693.38 825.19c-11.69-8.83-22.73-17.97-32.46-32.83 18.43-.3 36.48 21.3 32.46 32.83Z"/><path fill="url(#AB)" d="M695.38 798.82c2.46-10.01 4.39-19.87 2.73-31.95-10.89 8.68-10.76 28.12-2.73 31.95Z"/><path fill="url(#AC)" d="M651.95 899.5c-2.25-15.57-3.76-30.89.05-49.58 14.28 13.7 11.73 43.82-.05 49.58Z"/><path fill="url(#AD)" d="M674.26 865.43c12.48-3.38 24.47-7.25 36.72-16.41-16.15-6.67-37.4 5.28-36.72 16.41Z"/><path fill="url(#AE)" d="M634.78 964.91c-12.16-15.88-23.34-31.94-30.72-55.04 24.35 6.34 40.22 41.35 30.72 55.04Z"/><path fill="url(#AF)" d="M636.41 950.25c8.92-8.73 17.19-17.64 23.2-31.12-16.74 1.99-29.02 22.06-23.2 31.12Z"/></g><g transform="rotate(354.854 710.814 966.29)"><path fill="url(#AG)" d="M700.85 952.14s2.01-55.95 9.59-69.8 13.92-10.88 16.48-6.52 5.13 6.62 8.1 7.39c2.68-19.36 14.9-32 20.64-31.55 7.21.56 14.51 9.63 14.83 25.55.33 15.92-13.78 24.97-18.5 29.41s-6.5 7.93-2.4 9.7c6.23 2.68 15.06 10.3 5.87 25.02-13.6 21.77-54.61 10.8-54.61 10.8Z" transform="matrix(.90323 -.06719 .06278 .84391 7.042 197.989)"/><path stroke="#92ddc3" d="M694.41 867.8s17.43 26.14 19.73 48.95c2.27 22.58-6.4 48.73 5.9 81" class="B C D E K"/><path fill="url(#AH)" d="M663.97 881.26c3.1 7.01 19.24 6.68 36.06-.76 16.81-7.43 27.93-19.14 24.83-26.16-3.1-7.01-19.24-6.68-36.06.76-16.82 7.43-27.93 19.14-24.83 26.16Z"/><ellipse fill="#82229b" rx="13.06" ry="5.45" transform="rotate(336.149 2402.04 -1210.104)"/></g><path fill="url(#AI)" d="M244.314 226.574c5.659 42.182 57.362 36.722 55.326 6.126 16.19 12.94 27.31 1.77 29.47-18.41 30.23 26.48 45.58 8.27 39.92-29.89 21.43 27.04 49.07 13.48 58.58-19.39 9.04 1.41 17.47 5.11 26.51 5.11 59.61 0 83.394-158.16-81.956-158.16-97.06 0-133.016 28.33-133.016 116.39-53.906 33.749-18.454 98.224 5.166 98.224Z" transform="matrix(1 0 .05065 .89736 -7.186 14.561)"/><path fill="url(#AJ)" d="M847.5 151.68c16.11 41.83-31.17 82.2-53.75 30.17-11.35 28.81-48.27 47.34-61.5 2.77-22.87 29.39-55.53 22.51-58.94-23.75-17.88 17.88-63.12 30.64-63.12-20.92-19.28 0-49.05-10.81-42.22-53.01 6.86-42.4 69.09-55.52 112.09-55.52 73.62 0 93.889 12.524 134.109 59.164 7.98 9.27 28.931 49.696 33.331 61.096Z" transform="matrix(1 0 -.05407 .95784 -7.962 -2.572)"/><path fill="url(#AK)" d="M977.174 317.335c-26.949 101.616-51.453 81.839-138.956 152.927-6.08-24.538-26.221-15.699-26.461 5.811-5.87-4.02-20.35 2.583-11.34 14.852-21.332-31.624-38.472-7.337-38.472 10.433-33.609-7.637-38.356 29.076-29.985 43.613 3.553 7.856 1.268 10.442-5.277 14.553-20.09 7.835-40.243 65.952-40.243 87.452 21.581.445 53.82-1.358 92.96-1.358l197.984-1.43c.01-7.26-1.507-50.242-1.118-79.468" transform="matrix(.79526 0 0 .7759 223.03 113.193)"/><use href="#AX" fill="url(#AS)"/><g transform="matrix(.76574 0 0 .76574 227.315 129.16)"><g transform="rotate(10.004 596.059 362.131)"><g stroke-width="2.731" class="B C D E"><path stroke="#f9ffff" d="M554.603 425.056s5.098-17.31 14.989-26.869c-7.22 13.068-11.352 19.65-13.87 28.28"/><path stroke="#ffd98c" d="M559.352 424.133s6.711-17.182 12.328-25.58c-10.506 17.719-12.567 24.48-13.862 27.722"/></g><path d="M564.79 400.89c1.78-7.03 5.05-22.43 9.85-29.35s18.71-16.69 24.71-16.61 5.91 11.01-.54 23.78-27.3 23.59-30.92 25.74-3.69-1.23-3.1-3.56Z" class="I"/><path fill="url(#AT)" d="M566.73 399.33c1.78-7.03 6.98-20.54 11.78-27.46s14.84-17.02 20.84-16.94 5.91 11.01-.54 23.78-22.77 18.99-26.39 21.15c-5.66 3.38-6.28 1.8-5.69-.53Z"/><path fill="#c997a6" d="M577.86 383.63c-4.38 3.49-8.444 10.447-12.064 20.647.51.43 1.049.246 2.429-.574 3.61-2.15 24.135-12.213 30.585-24.983.66-1.31 1.25-2.6 1.78-3.86 7.15-13.62-17.67 4.74-22.73 8.77Z"/><path fill="url(#AL)" d="M577.86 383.63c-4.38 3.49-9.1 11.04-12.72 21.24.51.43 1.37.41 2.75-.41 3.61-2.15 24.47-12.97 30.92-25.74.66-1.31 1.25-2.6 1.78-3.86-9.49 6.78-17.67 4.74-22.73 8.77Z"/></g><path d="M597.825 361.175c2.245 1.672 2.766 5.105 3.08 7.48 7.006-4.01 13.61-16.35 7.562-21.042-5.925-4.59-15.555 2.378-20.432 11.357 3.625-.945 6.014-.617 9.79 2.205Z" class="I"/><g transform="rotate(9.489 595.276 362.33)"><path fill="url(#AU)" d="M605.86 345.64c-3.69-2.07-9.41 2-12.64 7.09-2.35 3.69-3.63 7.78-5.06 10.92 0 0 1.93-.82 2.53-.24s-.85 2.84.21 3.66c1.07.82 2.89-.61 3.8-.24s.64 1.81 1.53 2.45 1.72-.96 2.72-.56 3.16.03 3.16.03c4.37-6.81 11.73-18.63 3.75-23.11Z"/><path fill="url(#AM)" d="M601.8 356.23s-6.21-.35-8.74 3.94-1.58 7.2-1.58 7.2l11.9-7.41-1.58-3.73Z"/><path fill="url(#AN)" d="M629.27 342.45c-10.36.56-21.54 4.77-21.54 4.77 0 .01-.85 1.14-.55 3.18-8.79 3.16-9.76 11.26-6.26 15.53 1.31 1.59 2.97.32 4.43-1.31 3.19-3.18 4.14-8.57 4.72-12.41 2.53-3.09 10.37-6.39 19.2-9.76Z"/><path fill="url(#AO)" d="M600.4 353.76a10.167 10.167 0 0 1 2.5-1.83c-.01-.2-.05-.4-.13-.6-.4-.94-1.48-1.37-2.42-.98-.94.4-1.37 1.48-.98 2.42.21.47.59.81 1.03.99Z"/></g><path fill="url(#AV)" d="M537.588 353.765c-1.35 1.56 7.977 18.999 20.662 26.135 11.3 3.51 17.957-.565 20.747-2.225 2.79-1.67 4.962-6.086 4.132-7.476-12.235-12.695-44.258-18-45.541-16.434Z" transform="matrix(-.7496 -.47014 -.53133 .84717 1217.994 331.04)"/><path d="M584.863 372.52c4.445-3.37 33.926 4.257 35.661 6.705-.214 3.297-15.613 10.025-23.263 6.985-6.63-2.635-12.398-13.69-12.398-13.69Z" class="I"/><g transform="matrix(-.7496 -.47014 -.53133 .84717 1217.994 331.04)"><path fill="url(#AP)" d="m581.27 371.54-32.92-9.41s6.89 14.13 16.04 15.62c7.94 1.29 16.88-6.21 16.88-6.21Z"/><path fill="url(#AQ)" d="M575.88 372.83c1.48.33 2.7.26 3.71-.02l1.68-1.27-16.65-4.76c2.33 1.82 6.94 5.08 11.26 6.05z"/></g></g><mask id="Ag"><path fill="url(#AR)" d="M818.37 443.28c3.26-3.45 5.55-11.3 2.87-16.47s-15.32-18.19-23.94-30.06-17.43-27.38-19.98-39.32c-2.16-10.1 3.83-25.79 4.09-34.72s1.15-36.64-4.21-64.21-9.32-51.35-35.81-68.55c-41.68-27.06-141.26-43.91-226.53-30.64-85.28 13.28-126.64 102.13-121.53 161.87s39.83 110.81 47.49 133.28 8.68 45.45 6.13 69.96-26.87 96.76-43.91 128.94c-9.42 17.8-27.15 43.8-45.2 72.52 29.55 3.87 63.52 13.18 101.88 30.89 77.63 35.83 120.12 87.31 143.34 131.65 34.97 8.25 72.19 22.25 125.51 23.46-5.81-24.45-30.01-117.11-40.6-127.91-18.77-19.15-45.7-40.85-81.45-47.62 2.55-10.98 16.65-32.96 24.51-51.83 10.21-24.51 15.32-49.02 23.74-74.17s15.45-25.15 21.32-25.15 20.55 1.91 36.38 3.96 41.28 5.65 54.67-2.52c15.22-9.29 12.4-27.43 11.11-32.22-1.11-4.13-2.49-6.65-1.53-13.64s8.33-14.84 14.94-19.82c1.24-8.14-1.05-13.6-7.47-18.19 0 0 4.4-3.06 10.24-6.51s8.04-8.81 6.32-16.66c-4.88-6.51-7.09-15.03-4.02-20.2 3.06-5.21 18.38-12.68 21.64-16.12Z"/><path fill="#fff" d="M336.466 779.017c61.47 67.82 132.694 102.463 194.484 113.303 87.32 15.32 183.947 35.458 200.926 88.255 26.13-37.879 70.937-119.332 17.524-173.905 16.68 3.005 36.48-6.213 47.33-13.931-29.425-3.53-47.813-14.32-67.483-37.82-6.56-7.83-12.471-17.838-17.608-28.33-2.79-6.198-4.269-13.129-5.199-17.929-.93-14.4-26.21-82.625-61.83-111.345-80.7-65.08-95.25-159.735-23.28-235.025 19.76-20.68 78.4-60.05 87.7-86.94.93 34.57-15.95 54.37-27.57 94.21 37.91-31.02 54.99-58.79 68.94-118.34 2.79-9.6 26.56-11.03 29.35-21.59 1.86-9.6-.75-27.05-4.99-33.86-4.26-6.84-10.1-14.49-17.34-22.41-21.74-23.75-56.03-49.97-99.03-64-15.09-4.92-31.5-6.87-47.86-6.74-16.37.13-32.7 2.33-47.64 5.7-22.03 5.91-45.28 11.67-64.82 26.08-1.86-17.29-6.51-35.53-21.39-47.05-27.54-18.68-63.72-14.69-92.8 2.67-13.94-.13-27.46 2.24-38.36 12.69a33.918 33.918 0 0 0-3.43 4.9c-7.55 5.35-10.08 12.33-19.41 15-38.48 11.03-36.02 73.78-23.67 104.94 1.4 3.52 2.84 6.7 4.34 9.56-1.13-.21-2.1-.2-2.1-.2-10.42 10.21-21.621 20.714-28.561 33.834-6.99 13.14-11.978 27.874-12.618 43.604 3.75-13.77 10.57-26.495 17.4-38.335 4.7-8.17 7.662-12.029 13.942-18.839-3.964 7.774-7.343 16.471-8.223 26.551-1.65 18.23.8 32.422 9.26 48.352-1.65-14.45-2.692-27.26-1.852-42.07.83-14.81 7.902-27.297 17.622-39.197.74-1.08 1.2-2.36 1.46-3.71 14.42 18.44 31.95 14.4 48.88 8.3.93 0-.93 10.56 3.72 14.4-72.56 19.21-82.633 101.197-66.813 166.497 1.86 8.64 1.961 30.366-4.549 37.086-16.12 15.36-28.354 34.276-37.104 52.876-4.38 9.3-5.77 15.828-8.7 25.708-8.436 25.172-7.194 42.648-5.575 76.18 1.52 27.42-6.278 53.02-15.386 66.911 14.597-3.309 32.845-38.653 41.715-78.875 2.606 3.969 26.168 113.814 70.598 162.834ZM354.85 102.21c.03-.02.06-.04.09-.05 5.53-3.07 12.11-4.76 18.72-5.27-1.66 1.26-3.3 2.55-4.9 3.89-5.56.08-10.11.6-13.91 1.43Z"/></mask></g></svg>