<svg width="550" height="480" viewBox="0 0 550 480" fill="none" xmlns="http://www.w3.org/2000/svg">
<path opacity="0.5" d="M526.737 173.071H477.91V155.484H490.772C490.881 155.484 490.986 155.441 491.063 155.363C491.14 155.286 491.184 155.182 491.184 155.072C491.184 154.963 491.14 154.858 491.063 154.781C490.986 154.704 490.881 154.66 490.772 154.66H460.888V138.095H505.872C505.981 138.095 506.086 138.051 506.163 137.974C506.24 137.897 506.283 137.792 506.283 137.683C506.283 137.574 506.24 137.469 506.163 137.392C506.086 137.314 505.981 137.271 505.872 137.271H419.665C419.556 137.271 419.451 137.314 419.374 137.392C419.297 137.469 419.254 137.574 419.254 137.683C419.254 137.792 419.297 137.897 419.374 137.974C419.451 138.051 419.556 138.095 419.665 138.095H428.86V154.655H404.566C404.456 154.655 404.352 154.698 404.274 154.776C404.197 154.853 404.154 154.958 404.154 155.067C404.154 155.176 404.197 155.281 404.274 155.358C404.352 155.435 404.456 155.479 404.566 155.479H447.987V173.071H440.531C440.421 173.071 440.317 173.115 440.239 173.192C440.162 173.269 440.119 173.374 440.119 173.483C440.119 173.592 440.162 173.697 440.239 173.774C440.317 173.851 440.421 173.895 440.531 173.895H526.737C526.846 173.895 526.951 173.851 527.028 173.774C527.105 173.697 527.149 173.592 527.149 173.483C527.149 173.374 527.105 173.269 527.028 173.192C526.951 173.115 526.846 173.071 526.737 173.071ZM429.675 154.66V138.095H460.059V154.655L429.675 154.66ZM477.08 173.071H448.803V155.484H477.08V173.071Z" fill="#11527E"/>
<path opacity="0.5" d="M120.277 385.542H95.9801V368.985H105.177C105.286 368.985 105.391 368.941 105.468 368.864C105.546 368.787 105.589 368.682 105.589 368.573C105.589 368.463 105.546 368.359 105.468 368.282C105.391 368.204 105.286 368.161 105.177 368.161H48.4843C48.3751 368.161 48.2703 368.204 48.1931 368.282C48.1159 368.359 48.0725 368.463 48.0725 368.573C48.0725 368.682 48.1159 368.787 48.1931 368.864C48.2703 368.941 48.3751 368.985 48.4843 368.985H63.9575V385.545H34.0653C33.9561 385.545 33.8514 385.588 33.7741 385.666C33.6969 385.743 33.6535 385.847 33.6535 385.957C33.6535 386.066 33.6969 386.171 33.7741 386.248C33.8514 386.325 33.9561 386.369 34.0653 386.369H46.9304V403.958H33.3845C33.2752 403.958 33.1705 404.002 33.0933 404.079C33.016 404.156 32.9727 404.261 32.9727 404.37C32.9727 404.479 33.016 404.584 33.0933 404.661C33.1705 404.739 33.2752 404.782 33.3845 404.782H84.312C84.4212 404.782 84.526 404.739 84.6032 404.661C84.6805 404.584 84.7238 404.479 84.7238 404.37C84.7238 404.261 84.6805 404.156 84.6032 404.079C84.526 404.002 84.4212 403.958 84.312 403.958H76.8555V386.369H120.277C120.386 386.369 120.491 386.325 120.568 386.248C120.645 386.171 120.689 386.066 120.689 385.957C120.689 385.847 120.645 385.743 120.568 385.666C120.491 385.588 120.386 385.545 120.277 385.545V385.542ZM76.0318 403.956H47.754V386.366H76.0318V403.956ZM64.7756 385.542V368.985H95.1564V385.545L64.7756 385.542Z" fill="#11527E"/>
<path d="M314.697 423.423L314.683 432.047H302.735L301.738 423.865L314.697 423.423Z" fill="white"/>
<path d="M315.128 432.494H302.339L301.241 423.434L315.15 422.959L315.128 432.494ZM303.13 431.602H314.241V423.885L302.232 424.296L303.13 431.602Z" fill="#0E2549"/>
<path d="M315.339 431.528C315.339 431.528 332.608 437.019 333.203 441.524H302.238V431.528H315.339Z" fill="#A1C5E2"/>
<path d="M266.537 423.613L266.213 432.335H254.265L253.699 423.423L266.537 423.613Z" fill="white"/>
<path d="M266.641 432.783H253.842L253.219 422.97L266.998 423.174L266.641 432.783ZM254.685 431.89H265.782L266.076 424.052L254.174 423.876L254.685 431.89Z" fill="#0E2549"/>
<path d="M266.866 431.816C266.866 431.816 284.135 437.307 284.73 441.812H253.768V431.816H266.866Z" fill="#A1C5E2"/>
<path d="M285.856 440.097V442.694H252.96V439.723L285.856 440.097Z" fill="#0E2549"/>
<path d="M301.271 439.638V442.405H334.167V439.435L301.271 439.638Z" fill="#0E2549"/>
<path d="M270.501 425.2H251.484L249.864 272.791L304.673 282.257L317.72 425.2H299.416L280.253 330.227L282.446 309.403L270.501 425.2Z" fill="#0E2549"/>
<path d="M257.568 422.293C257.509 422.292 257.451 422.279 257.397 422.255C257.344 422.232 257.295 422.198 257.254 422.156C257.214 422.113 257.182 422.063 257.161 422.009C257.14 421.954 257.13 421.896 257.131 421.837L259.937 295.608C259.942 295.49 259.992 295.379 260.078 295.297C260.163 295.216 260.277 295.171 260.395 295.171C260.514 295.174 260.626 295.224 260.708 295.309C260.789 295.395 260.834 295.509 260.832 295.627L258.015 421.856C258.013 421.973 257.965 422.085 257.881 422.166C257.797 422.248 257.685 422.293 257.568 422.293Z" fill="#A1C5E2"/>
<path d="M303.726 421.768L284.234 310.979C284.222 310.916 284.197 310.856 284.161 310.804C284.125 310.751 284.077 310.707 284.022 310.674L285.082 304.418V304.379V291.887C285.082 291.769 285.035 291.655 284.951 291.571C284.867 291.487 284.753 291.44 284.634 291.44C284.516 291.44 284.402 291.487 284.318 291.571C284.234 291.655 284.187 291.769 284.187 291.887V304.305L279.808 330.153C279.798 330.211 279.799 330.27 279.812 330.327C279.825 330.384 279.849 330.438 279.883 330.486C279.917 330.534 279.96 330.575 280.01 330.605C280.06 330.636 280.115 330.657 280.173 330.666H280.247C280.353 330.667 280.455 330.629 280.536 330.561C280.616 330.492 280.67 330.397 280.687 330.293L283.646 312.835L302.839 421.916C302.858 422.019 302.912 422.112 302.992 422.179C303.073 422.247 303.174 422.284 303.279 422.284H303.358C303.475 422.264 303.579 422.198 303.648 422.101C303.717 422.005 303.745 421.885 303.726 421.768Z" fill="#A1C5E2"/>
<path d="M290.867 291.888C290.867 291.888 290.683 304.517 288.486 304.917H267.484C266.797 304.256 265.699 300.486 272.288 300.349C278.877 300.212 280.838 300.349 280.838 300.349L280.525 291.888H290.867Z" fill="white"/>
<path d="M288.522 305.291H267.33L267.217 305.184C266.745 304.725 266.322 303.498 266.762 302.381C267.176 301.318 268.472 300.036 272.28 299.956C277.238 299.852 279.569 299.904 280.439 299.937L280.126 291.495H291.254V291.882C291.21 294.902 290.886 304.846 288.563 305.283L288.522 305.291ZM267.657 304.525H288.434C289.56 304.212 290.356 298.024 290.466 292.261H280.912L281.225 300.75L280.799 300.72C280.78 300.72 278.765 300.588 272.288 300.72C268.903 300.788 267.797 301.818 267.467 302.658C267.355 302.965 267.315 303.294 267.348 303.619C267.382 303.945 267.49 304.258 267.662 304.536L267.657 304.525Z" fill="#0E2549"/>
<path d="M316.322 190.949C316.322 190.949 311.254 204.605 311.959 206.456C312.665 208.306 312.783 215.439 312.783 215.439L299.026 241.888L276.456 233.473L281.274 209.358C281.274 209.358 294.144 203.562 295.253 201.964C296.791 199.751 300.278 186.672 300.278 186.672L316.322 190.949Z" fill="white"/>
<path d="M299.229 242.421L275.973 233.748L280.914 209.067L281.112 208.979C286.243 206.667 294.153 202.832 294.919 201.728C296.393 199.6 299.861 186.7 299.88 186.571C299.909 186.461 299.98 186.368 300.077 186.311C300.175 186.254 300.291 186.238 300.4 186.267C300.509 186.296 300.603 186.367 300.659 186.465C300.716 186.562 300.732 186.678 300.703 186.787C300.561 187.337 297.178 199.965 295.619 202.211C294.521 203.795 283.679 208.748 281.664 209.66L276.958 233.207L298.839 241.366L312.374 215.343C312.355 214.45 312.207 208.251 311.578 206.612C310.85 204.71 315.084 193.113 315.94 190.807C315.96 190.755 315.989 190.707 316.027 190.666C316.065 190.626 316.111 190.593 316.162 190.57C316.212 190.547 316.267 190.534 316.322 190.532C316.378 190.53 316.433 190.539 316.485 190.558C316.538 190.578 316.585 190.607 316.626 190.645C316.667 190.683 316.699 190.729 316.723 190.779C316.746 190.83 316.758 190.885 316.76 190.94C316.762 190.996 316.753 191.051 316.734 191.103C314.796 196.32 311.896 205.072 312.369 206.307C313.096 208.204 313.217 215.142 313.223 215.436V215.543L313.173 215.639L299.229 242.421Z" fill="#0E2549"/>
<path d="M321.785 162.046C324.531 163.3 331.238 166.265 329.533 171.358C327.589 177.168 324.108 184.306 322.208 188.045C321.845 188.757 321.239 189.315 320.499 189.618C319.759 189.92 318.935 189.946 318.178 189.692L300.64 183.822C299.864 183.561 299.21 183.024 298.805 182.312C298.4 181.6 298.271 180.763 298.444 179.962C299.63 174.373 302.243 162.57 303.457 161.066C307.583 155.94 317.439 160.058 321.785 162.046Z" fill="#0E2549"/>
<path d="M300.728 188.075C300.11 186.774 301.036 182.755 302.414 178.279C302.432 178.217 302.435 178.15 302.422 178.086C302.408 178.022 302.379 177.962 302.337 177.912C301.414 176.838 300.239 174.815 301.025 172.627C301.705 170.732 302.946 171.594 303.83 172.572C303.867 172.611 303.913 172.64 303.965 172.656C304.016 172.672 304.071 172.674 304.124 172.662C304.176 172.65 304.225 172.625 304.264 172.588C304.304 172.552 304.333 172.505 304.349 172.454C306.227 167.128 308.094 162.532 308.094 162.532L328.934 169.505C328.934 169.505 327.287 174.268 325.302 179.556C325.212 179.792 320.064 192.273 319.174 193.261C318.628 193.821 317.921 194.197 317.151 194.337C317.151 194.337 315.446 194.983 307.872 192.449L300.728 188.075Z" fill="white"/>
<path d="M316.404 194.837C315.24 194.837 312.739 194.524 307.737 192.852C307.684 192.834 307.635 192.806 307.593 192.769C307.551 192.732 307.517 192.687 307.492 192.637C307.467 192.587 307.453 192.532 307.449 192.476C307.445 192.42 307.453 192.364 307.471 192.311C307.489 192.258 307.517 192.209 307.554 192.167C307.591 192.125 307.636 192.091 307.686 192.066C307.736 192.041 307.791 192.027 307.847 192.023C307.903 192.019 307.959 192.027 308.012 192.045C315.18 194.444 316.997 193.939 317.017 193.934H317.06C317.745 193.813 318.374 193.482 318.861 192.987C319.66 192.097 324.717 179.91 324.901 179.416C326.549 175.073 327.949 171.045 328.388 169.782L308.347 163.072C307.866 164.269 306.309 168.209 304.758 172.605C304.717 172.727 304.645 172.836 304.548 172.921C304.452 173.007 304.335 173.066 304.209 173.093C304.086 173.118 303.958 173.11 303.838 173.07C303.719 173.03 303.612 172.959 303.528 172.865C302.944 172.215 302.416 171.88 302.084 171.946C301.752 172.012 301.568 172.434 301.442 172.769C300.657 174.966 302.043 176.887 302.674 177.634C302.765 177.738 302.827 177.863 302.855 177.997C302.884 178.132 302.877 178.272 302.836 178.403C300.709 185.308 300.854 187.312 301.129 187.894C301.176 187.996 301.181 188.112 301.143 188.217C301.104 188.322 301.026 188.409 300.925 188.457C300.824 188.505 300.708 188.511 300.602 188.474C300.496 188.437 300.409 188.36 300.36 188.259C299.77 187.012 300.313 183.712 302.007 178.172C301.272 177.313 299.701 175.073 300.635 172.484C300.909 171.677 301.354 171.21 301.911 171.111C302.537 170.987 303.246 171.339 304.017 172.152C305.856 166.935 307.688 162.427 307.707 162.381L307.858 162.013L329.483 169.25L329.343 169.656C329.327 169.703 327.68 174.482 325.709 179.715C325.662 179.836 320.492 192.459 319.501 193.555C318.901 194.177 318.122 194.598 317.272 194.757C316.988 194.827 316.696 194.853 316.404 194.837Z" fill="#0E2549"/>
<path d="M313.524 177.818C313.407 177.818 313.292 177.789 313.188 177.733C313.084 177.678 312.996 177.599 312.929 177.502C312.863 177.405 312.822 177.293 312.808 177.177C312.795 177.06 312.81 176.942 312.852 176.833L313.019 176.41C313.052 176.32 313.103 176.237 313.169 176.167C313.234 176.097 313.313 176.041 313.4 176.001C313.488 175.962 313.582 175.94 313.678 175.938C313.774 175.935 313.87 175.952 313.959 175.987C314.048 176.022 314.13 176.074 314.199 176.141C314.268 176.207 314.323 176.287 314.361 176.375C314.398 176.464 314.418 176.558 314.419 176.654C314.419 176.75 314.401 176.845 314.365 176.934L314.197 177.357C314.145 177.493 314.053 177.61 313.932 177.692C313.812 177.775 313.67 177.818 313.524 177.818Z" fill="#0E2549"/>
<path d="M322.184 181.099C322.103 181.099 322.023 181.085 321.948 181.058C321.767 180.995 321.618 180.864 321.534 180.692C321.45 180.52 321.438 180.322 321.5 180.141L321.676 179.633C321.738 179.451 321.871 179.301 322.044 179.217C322.217 179.132 322.416 179.12 322.598 179.183C322.78 179.245 322.93 179.378 323.014 179.551C323.099 179.724 323.111 179.923 323.048 180.105L322.875 180.613C322.826 180.756 322.732 180.88 322.608 180.967C322.484 181.054 322.335 181.1 322.184 181.099Z" fill="#0E2549"/>
<path d="M310.372 173.478C310.259 173.477 310.148 173.443 310.054 173.38C309.959 173.316 309.886 173.227 309.842 173.122C309.798 173.017 309.786 172.902 309.807 172.791C309.828 172.679 309.882 172.576 309.961 172.495C312.157 170.268 315.825 171.46 315.981 171.509C316.12 171.563 316.233 171.668 316.297 171.802C316.36 171.937 316.37 172.091 316.323 172.232C316.276 172.374 316.176 172.491 316.044 172.561C315.913 172.631 315.76 172.648 315.616 172.607C315.586 172.607 312.47 171.594 310.784 173.305C310.731 173.359 310.666 173.403 310.596 173.433C310.525 173.462 310.449 173.478 310.372 173.478Z" fill="#0E2549"/>
<path d="M317.401 183.99C317.187 183.989 316.974 183.977 316.761 183.954C316.694 183.952 316.629 183.935 316.568 183.906C316.508 183.877 316.454 183.835 316.411 183.784C316.367 183.734 316.334 183.674 316.314 183.61C316.294 183.546 316.288 183.479 316.295 183.412C316.303 183.346 316.324 183.281 316.357 183.223C316.39 183.165 316.435 183.114 316.489 183.074C316.543 183.034 316.604 183.006 316.669 182.99C316.735 182.975 316.802 182.973 316.868 182.985C317.623 183.067 318.376 182.944 318.463 182.785C318.59 182.51 318.785 180.77 318.941 179.378C319.243 176.712 319.446 175.056 319.737 174.551C319.814 174.416 319.921 174.301 320.049 174.215C320.178 174.129 320.325 174.074 320.479 174.054C321.923 173.826 324.517 176.111 325.022 176.572C325.069 176.615 325.108 176.667 325.135 176.725C325.162 176.783 325.177 176.845 325.18 176.909C325.183 176.973 325.174 177.037 325.152 177.097C325.13 177.157 325.097 177.212 325.054 177.26C325.011 177.307 324.959 177.345 324.901 177.372C324.843 177.399 324.78 177.415 324.716 177.418C324.653 177.421 324.589 177.411 324.529 177.389C324.469 177.368 324.413 177.334 324.366 177.291C322.208 175.331 320.783 174.881 320.586 175.032C320.369 175.408 320.091 177.862 319.91 179.485C319.636 181.895 319.507 182.911 319.317 183.257C318.98 183.866 318.085 183.99 317.401 183.99Z" fill="#0E2549"/>
<path d="M323.685 170.287C326.431 171.029 331.842 171.688 333.072 166.208C334.302 160.728 332.63 162.309 332.63 162.309C332.63 162.309 331.136 163.133 330.708 163.037C330.28 162.941 331.04 163.528 331.076 158.644C331.076 158.644 327.334 156.577 324.789 158.521C322.244 160.464 321.472 158.661 321.236 157.189C321.036 155.937 318.9 156.775 318.216 157.76C317.195 158.784 311.281 156.132 309.157 156.451C305.815 156.95 304.621 157.236 303.446 161.057C303.221 161.79 302.024 169.272 302.024 169.272L306.793 162.573C306.793 162.573 319.208 169.074 323.685 170.287Z" fill="#0E2549"/>
<path d="M318.085 186.963C318.228 187.32 317.67 188.41 316.668 187.973C314.101 186.856 312.388 184.097 312.967 184.473C313.195 184.621 314.724 185.634 315.79 186.175C317.261 186.903 317.934 186.548 318.085 186.963Z" fill="#0E2549"/>
<path d="M295.86 202.478C295.86 202.478 313.22 208.614 313.906 208.657C314.592 208.701 303.1 287.281 303.1 287.281L266.616 275.566L295.86 202.478Z" fill="#E2474B"/>
<path d="M271.687 295.655C271.57 295.655 271.457 295.608 271.375 295.525C271.292 295.442 271.245 295.33 271.245 295.213V230.843C271.245 230.726 271.292 230.614 271.375 230.531C271.457 230.448 271.57 230.401 271.687 230.401C271.804 230.401 271.917 230.448 272 230.531C272.083 230.614 272.129 230.726 272.129 230.843V295.213C272.129 295.33 272.083 295.442 272 295.525C271.917 295.608 271.804 295.655 271.687 295.655Z" fill="#0E2549"/>
<path d="M321.654 244.617C322.963 246.95 351.351 226.115 351.774 224.529C352.74 220.891 350.401 217.522 350.676 216.446C351.087 214.763 354.582 220.059 355.343 221.599C355.472 221.874 355.678 221.874 355.933 221.739C358.997 220.029 367.096 215.128 367.519 216.833C367.909 218.398 359.815 222.272 359.878 222.653C360.046 223.667 360.787 227.373 356.721 229.012C354.094 230.074 346.972 255.368 333.256 252.708C319.54 250.047 320.333 242.275 321.654 244.617Z" fill="white"/>
<path d="M335.279 253.345C334.566 253.343 333.854 253.272 333.154 253.133C322.996 251.154 320.591 246.388 320.525 244.719C320.495 243.986 320.868 243.799 321.03 243.752C321.233 243.695 321.626 243.697 322.008 244.342C322.694 244.504 326.598 242.819 337.171 235.392C344.663 230.132 350.914 225.174 351.337 224.383C351.925 222.148 351.194 220.013 350.662 218.45C350.343 217.511 350.113 216.831 350.233 216.331C350.257 216.162 350.335 216.005 350.456 215.885C350.577 215.765 350.734 215.688 350.903 215.667H350.972C352.476 215.667 355.381 220.765 355.702 221.341L357.042 220.581C362.807 217.286 366.184 215.592 367.425 216.122C367.552 216.174 367.664 216.255 367.753 216.359C367.842 216.462 367.906 216.585 367.939 216.718C368.227 217.882 366.184 219.323 362.052 221.745C361.383 222.137 360.633 222.568 360.339 222.788C360.85 226.052 359.686 228.279 356.875 229.418C356.325 229.643 355.101 232.057 353.929 234.388C350.294 241.597 344.383 253.345 335.279 253.345ZM321.478 245.073C321.565 245.396 321.693 245.708 321.857 246.001C322.592 247.354 325.179 250.668 333.324 252.257C342.98 254.141 349.333 241.523 353.127 233.984C354.843 230.577 355.705 228.924 356.537 228.589C360.166 227.123 359.614 223.87 359.436 222.802L359.42 222.717C359.348 222.288 359.606 222.137 361.599 220.971C362.772 220.284 364.23 219.428 365.372 218.612C367.137 217.349 367.068 216.935 367.068 216.929C367.068 216.924 366.494 216.655 363.337 218.179C361.388 219.123 359.129 220.413 357.481 221.355C356.971 221.646 356.515 221.904 356.136 222.118C356.03 222.186 355.911 222.231 355.787 222.25C355.662 222.269 355.535 222.261 355.414 222.228C355.306 222.193 355.206 222.135 355.122 222.058C355.038 221.981 354.971 221.888 354.925 221.783C354.154 220.21 351.889 216.993 351.082 216.594C351.06 216.869 351.282 217.531 351.496 218.162C352.045 219.743 352.85 222.132 352.185 224.633C351.864 225.844 342.384 232.787 338.758 235.359C334.746 238.204 325.113 244.864 322.304 245.218C322.02 245.276 321.725 245.224 321.478 245.073Z" fill="#0E2549"/>
<path d="M238.028 279.83C238.028 279.83 261.235 208.256 270.973 201.753C280.711 195.249 283.8 196.311 291.756 196.374C299.712 196.437 299.828 217.127 297.291 224.183C294.073 233.144 277.291 288.664 277.291 288.664L238.028 279.83Z" fill="#A1C5E2"/>
<path d="M295.394 292.741C295.394 292.741 303.647 236.243 307.013 224.792C309.127 217.599 311.109 202.425 315.268 203.743C324.24 206.59 329.404 238.645 329.404 238.645L347.398 223.911L358.198 239.304C358.198 239.304 340.556 268.68 327.175 268.549C321.275 268.491 314.244 252.46 314.244 252.46L309.028 295.808L295.394 292.741Z" fill="#A1C5E2"/>
<path d="M273.258 228.735L271.676 297.389L291.751 297.667L292.86 223.979L273.258 228.735Z" fill="#A1C5E2"/>
<path d="M292.223 298.153L271.185 297.878L272.785 228.724C272.786 228.66 272.799 228.598 272.824 228.54C272.85 228.482 272.886 228.429 272.932 228.385C272.978 228.342 273.032 228.307 273.091 228.285C273.15 228.262 273.213 228.252 273.277 228.254C273.34 228.256 273.402 228.269 273.46 228.295C273.517 228.32 273.57 228.357 273.613 228.403C273.657 228.448 273.691 228.502 273.714 228.561C273.737 228.62 273.748 228.682 273.746 228.746L272.176 296.917L291.287 297.192L292.385 223.985C292.387 223.859 292.438 223.738 292.528 223.65C292.618 223.561 292.739 223.511 292.865 223.51C292.928 223.511 292.991 223.525 293.048 223.55C293.106 223.575 293.159 223.611 293.203 223.657C293.246 223.702 293.281 223.755 293.304 223.814C293.327 223.873 293.338 223.936 293.337 223.999L292.223 298.153Z" fill="#0E2549"/>
<path d="M314.087 250.218H314.024C313.961 250.209 313.9 250.188 313.844 250.156C313.789 250.124 313.741 250.081 313.702 250.03C313.663 249.979 313.635 249.921 313.62 249.859C313.604 249.797 313.6 249.732 313.61 249.669L316.339 228.507C316.358 228.383 316.424 228.271 316.525 228.196C316.625 228.12 316.751 228.087 316.875 228.103C317 228.119 317.113 228.184 317.191 228.282C317.268 228.381 317.304 228.506 317.291 228.631L314.562 249.792C314.549 249.909 314.493 250.017 314.406 250.095C314.318 250.174 314.205 250.217 314.087 250.218Z" fill="#0E2549"/>
<path d="M161.596 371.077H112.554C109.395 371.073 106.367 369.815 104.134 367.58C101.901 365.345 100.647 362.315 100.647 359.156V258.369C100.647 255.207 101.903 252.175 104.139 249.94C106.374 247.704 109.407 246.448 112.568 246.448H151.468C153.033 246.448 154.583 246.757 156.029 247.356C157.475 247.955 158.789 248.833 159.896 249.94C161.003 251.047 161.881 252.361 162.479 253.807C163.078 255.254 163.386 256.804 163.386 258.369V349.572L173.511 359.156C173.511 362.317 172.256 365.348 170.021 367.583C167.787 369.819 164.756 371.075 161.596 371.077Z" fill="#A1C5E2"/>
<path d="M161.596 371.557H112.554C109.267 371.553 106.114 370.246 103.79 367.921C101.465 365.596 100.157 362.444 100.153 359.156V258.369C100.157 255.081 101.465 251.929 103.79 249.604C106.114 247.279 109.267 245.971 112.554 245.968H151.468C154.755 245.972 157.907 247.28 160.231 249.605C162.555 251.93 163.863 255.081 163.866 258.369V349.366L173.989 358.95V359.156C173.986 362.443 172.679 365.594 170.356 367.919C168.033 370.244 164.882 371.552 161.596 371.557ZM112.554 246.929C109.521 246.932 106.613 248.138 104.468 250.283C102.323 252.427 101.117 255.336 101.114 258.369V359.156C101.117 362.189 102.323 365.097 104.468 367.242C106.613 369.387 109.521 370.593 112.554 370.596H161.596C164.59 370.592 167.463 369.415 169.6 367.317C171.737 365.22 172.967 362.369 173.028 359.376L162.905 349.767V258.369C162.902 255.336 161.697 252.428 159.552 250.284C157.408 248.139 154.501 246.932 151.468 246.929H112.554Z" fill="#0E2549"/>
<path d="M134.69 353.193L114.243 353.541C116.95 320.39 108.84 270.973 108.757 270.476C108.749 270.411 108.729 270.349 108.696 270.293C108.664 270.237 108.62 270.188 108.568 270.149C108.517 270.11 108.457 270.082 108.394 270.067C108.331 270.052 108.266 270.049 108.202 270.06C108.138 270.07 108.077 270.094 108.022 270.128C107.967 270.163 107.92 270.209 107.884 270.262C107.847 270.316 107.822 270.376 107.809 270.44C107.796 270.503 107.797 270.569 107.81 270.632C107.892 271.129 116 320.514 113.262 353.544L108.903 353.618C108.775 353.618 108.653 353.669 108.563 353.759C108.473 353.849 108.422 353.971 108.422 354.099C108.422 354.226 108.473 354.348 108.563 354.438C108.653 354.528 108.775 354.579 108.903 354.579L134.69 354.159C134.818 354.159 134.94 354.108 135.03 354.018C135.12 353.928 135.171 353.806 135.171 353.679C135.171 353.551 135.12 353.429 135.03 353.339C134.94 353.249 134.818 353.198 134.69 353.198V353.193Z" fill="#0E2549"/>
<path d="M146.995 432.923H142.452V376.702C145.34 376.112 147.495 373.819 147.495 371.077H134.495C134.495 373.822 136.653 376.112 139.539 376.702V432.923H134.995C133.922 432.922 132.859 433.134 131.868 433.544C130.877 433.954 129.976 434.556 129.217 435.315C128.458 436.074 127.856 436.975 127.446 437.966C127.035 438.957 126.824 440.02 126.825 441.093V442.694H155.168V441.093C155.168 440.02 154.957 438.957 154.546 437.966C154.135 436.974 153.533 436.074 152.774 435.315C152.015 434.556 151.114 433.954 150.123 433.544C149.131 433.133 148.068 432.922 146.995 432.923Z" fill="#0E2549"/>
<path d="M235.022 410.067L242.91 429.823H229.199L222.44 417.213L235.022 410.067Z" fill="white"/>
<path d="M243.684 430.35H228.88L221.72 417.007L235.28 409.307L243.684 430.35ZM229.506 429.293H242.135L234.761 410.827L223.153 417.417L229.506 429.293Z" fill="#0E2549"/>
<path d="M243.662 429.183C243.662 429.183 263.481 435.896 264.165 441.425H228.628V429.183H243.662Z" fill="#E2474B"/>
<path d="M190.373 419.067L188.77 429.983H175.792L177.165 418.1L190.373 419.067Z" fill="white"/>
<path d="M189.228 430.509H175.196L176.698 417.534L190.974 418.58L189.228 430.509ZM176.385 429.452H188.311L189.766 419.569L177.631 418.677L176.385 429.452Z" fill="#0E2549"/>
<path d="M189.522 429.343C189.522 429.343 209.338 436.055 210.022 441.584H174.499V429.343H189.522Z" fill="#E2474B"/>
<path d="M211.315 439.484V442.663H173.56V439.028L211.315 439.484Z" fill="#0E2549"/>
<path d="M227.519 439.114V442.504H265.274V438.869L227.519 439.114Z" fill="#0E2549"/>
<path d="M190.854 433.823C190.737 433.824 190.624 433.783 190.535 433.708C190.446 433.632 190.388 433.527 190.37 433.412C190.352 433.297 190.376 433.179 190.437 433.08C190.499 432.981 190.594 432.908 190.705 432.873L197.569 430.677C197.692 430.638 197.826 430.649 197.94 430.708C198.055 430.767 198.142 430.87 198.181 430.993C198.22 431.116 198.209 431.249 198.15 431.364C198.091 431.479 197.988 431.566 197.865 431.605L191.002 433.801C190.954 433.816 190.904 433.824 190.854 433.823Z" fill="#0E2549"/>
<path d="M194.28 436.009C194.165 436.007 194.054 435.966 193.967 435.89C193.88 435.815 193.822 435.711 193.804 435.598C193.786 435.484 193.81 435.368 193.869 435.27C193.929 435.171 194.022 435.098 194.131 435.061L200.995 432.865C201.116 432.833 201.244 432.849 201.353 432.909C201.463 432.969 201.545 433.069 201.582 433.188C201.62 433.307 201.611 433.436 201.556 433.548C201.501 433.66 201.406 433.747 201.289 433.79L194.439 435.987C194.387 436.003 194.334 436.011 194.28 436.009Z" fill="#0E2549"/>
<path d="M199.027 438.197C198.91 438.198 198.797 438.157 198.709 438.081C198.62 438.006 198.561 437.901 198.543 437.786C198.525 437.671 198.549 437.553 198.611 437.454C198.672 437.355 198.767 437.282 198.879 437.247L205.742 435.051C205.863 435.019 205.991 435.034 206.1 435.094C206.21 435.155 206.292 435.254 206.33 435.373C206.367 435.492 206.358 435.621 206.303 435.733C206.249 435.845 206.153 435.932 206.036 435.976L199.172 438.172C199.125 438.187 199.076 438.195 199.027 438.197Z" fill="#0E2549"/>
<path d="M244.022 432.92C243.905 432.921 243.792 432.88 243.703 432.804C243.614 432.729 243.556 432.624 243.538 432.509C243.52 432.394 243.544 432.276 243.605 432.177C243.667 432.078 243.762 432.004 243.873 431.97L250.723 429.773C250.846 429.735 250.98 429.746 251.094 429.805C251.209 429.864 251.296 429.966 251.335 430.089C251.355 430.15 251.362 430.214 251.357 430.278C251.352 430.341 251.334 430.403 251.305 430.46C251.275 430.516 251.235 430.567 251.186 430.608C251.137 430.649 251.081 430.68 251.02 430.699L244.156 432.895C244.113 432.91 244.067 432.918 244.022 432.92Z" fill="#0E2549"/>
<path d="M247.448 435.105C247.331 435.106 247.218 435.065 247.129 434.99C247.041 434.914 246.982 434.809 246.964 434.694C246.946 434.579 246.97 434.461 247.032 434.362C247.093 434.263 247.188 434.19 247.3 434.155L254.163 431.959C254.224 431.937 254.289 431.929 254.354 431.933C254.419 431.937 254.482 431.954 254.54 431.983C254.598 432.012 254.65 432.052 254.692 432.101C254.734 432.15 254.766 432.207 254.786 432.269C254.806 432.331 254.813 432.396 254.807 432.461C254.802 432.525 254.783 432.588 254.752 432.645C254.722 432.703 254.68 432.753 254.63 432.794C254.58 432.835 254.522 432.866 254.46 432.884L247.596 435.08C247.548 435.095 247.498 435.104 247.448 435.105Z" fill="#0E2549"/>
<path d="M252.194 437.293C252.078 437.294 251.965 437.253 251.876 437.178C251.787 437.102 251.728 436.998 251.71 436.882C251.692 436.767 251.716 436.649 251.778 436.551C251.84 436.452 251.935 436.378 252.046 436.343L258.896 434.147C259.019 434.108 259.153 434.119 259.267 434.178C259.382 434.237 259.469 434.34 259.508 434.463C259.548 434.586 259.536 434.72 259.477 434.834C259.418 434.949 259.316 435.036 259.192 435.075L252.329 437.271C252.285 437.284 252.24 437.291 252.194 437.293Z" fill="#0E2549"/>
<path d="M175.82 327.891C175.82 327.891 219.376 325.969 220.474 336.608C221.572 347.246 194.873 422.567 194.873 422.567L173.95 419.594C173.95 419.594 189.011 364.369 188.358 360.408C185.777 344.737 125.584 325.703 125.584 325.703L175.82 327.891Z" fill="#1E5272"/>
<path d="M117.702 319.586C117.702 319.586 112.467 353.953 137.497 356.07C162.754 358.209 187.018 357.827 192.52 363.225C194.129 364.806 222.495 422.567 222.495 422.567L242.311 414.753C242.311 414.753 209.166 343.282 206.621 339.845C202.041 333.654 198.571 330.315 175.825 327.891C155.281 325.703 117.702 319.586 117.702 319.586Z" fill="#2E6B99"/>
<path d="M177.429 227.491C177.429 227.491 172.879 240.905 173.706 242.654C174.532 244.403 180.665 248.554 180.665 248.554L162.128 277.447L138.367 270.396L142.128 246.907C142.128 246.907 155.141 240.707 156.206 239.112C157.681 236.916 160.627 224.125 160.627 224.125L177.429 227.491Z" fill="white"/>
<path d="M162.312 277.944L162.008 277.853L137.889 270.698L141.733 246.621L141.933 246.525C146.924 244.147 155.111 239.969 155.844 238.879C157.258 236.76 160.174 224.158 160.201 224.032C160.229 223.926 160.298 223.835 160.391 223.778C160.485 223.721 160.598 223.703 160.705 223.728C160.812 223.753 160.905 223.818 160.965 223.91C161.024 224.002 161.046 224.114 161.025 224.221C160.904 224.746 158.046 237.103 156.544 239.348C155.487 240.93 144.533 246.212 142.496 247.192L138.828 270.097L161.931 276.961L180.075 248.683C178.678 247.722 174.071 244.469 173.308 242.849C172.454 241.037 176.245 229.635 177.014 227.37C177.032 227.318 177.06 227.269 177.097 227.227C177.134 227.186 177.179 227.151 177.229 227.127C177.279 227.103 177.333 227.088 177.388 227.085C177.444 227.081 177.5 227.089 177.552 227.107C177.605 227.125 177.653 227.153 177.695 227.19C177.737 227.226 177.771 227.271 177.795 227.321C177.82 227.371 177.834 227.425 177.838 227.481C177.841 227.536 177.834 227.592 177.816 227.645C176.092 232.751 173.538 241.322 174.088 242.476C174.724 243.824 179.224 247.066 180.904 248.202L181.245 248.433L162.312 277.944Z" fill="#0E2549"/>
<path d="M179.279 199.535C182.236 200.479 189.451 202.686 188.218 207.743C186.812 213.509 183.96 220.707 182.387 224.49C182.053 225.229 181.475 225.829 180.749 226.189C180.023 226.55 179.195 226.648 178.406 226.467L159.737 222.505C158.026 222.143 156.879 220.639 157.074 219.008C157.722 213.517 159.201 201.929 160.297 200.366C164.025 195.038 174.598 198.041 179.279 199.535Z" fill="#0E2549"/>
<path d="M160.264 226.569C159.492 225.377 160.031 221.426 160.991 216.993C161.005 216.93 161.002 216.865 160.981 216.804C160.961 216.743 160.925 216.689 160.876 216.647C159.816 215.705 158.405 213.871 158.982 211.705C159.487 209.819 160.86 210.527 161.865 211.384C161.907 211.418 161.957 211.441 162.01 211.452C162.064 211.462 162.119 211.459 162.171 211.442C162.223 211.426 162.27 211.397 162.308 211.358C162.346 211.319 162.374 211.271 162.389 211.219C163.775 205.92 165.225 201.335 165.225 201.335L187.402 206.022C187.402 206.022 186.203 210.755 184.693 216.026C184.624 216.262 180.602 228.748 179.789 229.783C179.27 230.384 178.581 230.813 177.813 231.013C177.813 231.013 176.124 231.796 168.064 230.085L160.264 226.569Z" fill="white"/>
<path d="M176.146 231.617C174.691 231.617 172.187 231.395 167.979 230.503C167.918 230.498 167.859 230.481 167.805 230.452C167.752 230.422 167.706 230.382 167.669 230.333C167.633 230.284 167.607 230.228 167.594 230.169C167.581 230.109 167.581 230.048 167.594 229.988C167.607 229.929 167.632 229.873 167.669 229.824C167.705 229.775 167.752 229.735 167.805 229.705C167.858 229.676 167.918 229.658 167.978 229.654C168.039 229.649 168.1 229.658 168.157 229.679C175.814 231.304 177.634 230.637 177.651 230.629H177.692C178.379 230.45 178.995 230.067 179.46 229.531C180.182 228.611 184.144 216.41 184.289 215.916C185.522 211.617 186.557 207.636 186.886 206.354L165.513 201.818C165.143 203.013 163.943 206.95 162.798 211.323C162.765 211.445 162.702 211.557 162.614 211.648C162.527 211.739 162.417 211.807 162.297 211.845C162.176 211.882 162.048 211.889 161.924 211.864C161.8 211.839 161.684 211.783 161.587 211.702C160.901 211.12 160.305 210.848 159.957 210.958C159.652 211.051 159.482 211.474 159.391 211.812C158.812 213.967 160.432 215.694 161.154 216.336C161.259 216.428 161.337 216.547 161.381 216.68C161.425 216.813 161.433 216.955 161.403 217.091C159.926 223.916 160.278 225.819 160.618 226.346C160.652 226.393 160.676 226.446 160.689 226.503C160.702 226.559 160.703 226.617 160.692 226.674C160.681 226.731 160.659 226.785 160.627 226.833C160.595 226.881 160.553 226.922 160.505 226.953C160.456 226.985 160.402 227.006 160.345 227.015C160.288 227.025 160.229 227.023 160.173 227.009C160.117 226.996 160.064 226.971 160.018 226.936C159.972 226.901 159.933 226.857 159.904 226.807C159.63 226.385 158.806 225.102 160.566 216.949C159.712 216.183 157.876 214.178 158.57 211.592C158.782 210.802 159.163 210.313 159.704 210.145C160.338 209.948 161.115 210.219 162.016 210.953C163.388 205.769 164.802 201.239 164.819 201.195L164.934 200.827L187.927 205.706L187.82 206.134C187.82 206.181 186.601 210.933 185.107 216.152C185.072 216.27 181.03 228.905 180.13 230.055C179.564 230.722 178.808 231.201 177.964 231.428C177.821 231.472 177.332 231.617 176.146 231.617Z" fill="#0E2549"/>
<path d="M170.007 215.494C169.937 215.494 169.866 215.484 169.799 215.463C169.708 215.436 169.623 215.391 169.55 215.331C169.476 215.271 169.415 215.197 169.37 215.113C169.326 215.03 169.298 214.938 169.288 214.844C169.279 214.749 169.288 214.654 169.316 214.563L169.445 214.143C169.462 214.042 169.501 213.947 169.559 213.863C169.616 213.778 169.69 213.707 169.777 213.653C169.864 213.6 169.962 213.566 170.063 213.552C170.164 213.539 170.267 213.548 170.364 213.577C170.462 213.607 170.552 213.657 170.629 213.724C170.706 213.79 170.768 213.873 170.811 213.966C170.854 214.058 170.877 214.159 170.878 214.261C170.879 214.363 170.858 214.464 170.817 214.558L170.691 214.98C170.647 215.128 170.556 215.257 170.433 215.349C170.31 215.441 170.161 215.492 170.007 215.494Z" fill="#0E2549"/>
<path d="M180.22 217.69C180.16 217.69 180.1 217.681 180.042 217.665C179.857 217.618 179.698 217.499 179.6 217.335C179.502 217.171 179.474 216.975 179.52 216.789L179.649 216.284C179.697 216.099 179.816 215.939 179.981 215.841C180.145 215.744 180.342 215.715 180.528 215.763C180.714 215.81 180.873 215.929 180.971 216.094C181.069 216.259 181.097 216.455 181.05 216.641L180.921 217.144C180.881 217.3 180.791 217.438 180.664 217.537C180.538 217.636 180.381 217.69 180.22 217.69Z" fill="#0E2549"/>
<path d="M172.47 212.495C172.35 212.495 172.233 212.458 172.135 212.388C171.121 211.746 169.915 211.474 168.723 211.62C168.571 211.642 168.417 211.603 168.295 211.512C168.172 211.42 168.09 211.284 168.068 211.132C168.046 210.981 168.085 210.827 168.176 210.704C168.268 210.581 168.404 210.5 168.555 210.478C170.042 210.286 171.549 210.629 172.805 211.447C172.904 211.518 172.978 211.619 173.016 211.735C173.054 211.851 173.055 211.976 173.018 212.092C172.981 212.209 172.908 212.31 172.809 212.383C172.711 212.455 172.592 212.495 172.47 212.495Z" fill="#0E2549"/>
<path d="M170.592 222.44C170.123 222.849 171.509 224.883 173.612 225.237C177.039 225.819 178.617 223.864 177.761 223.864C177.423 223.864 176.034 224.249 173.991 223.864C171.784 223.436 170.905 222.165 170.592 222.44Z" fill="#0E2549"/>
<path d="M174.809 221.635H174.746C174.617 221.635 174.494 221.584 174.403 221.493C174.311 221.402 174.26 221.278 174.26 221.149C174.26 221.02 174.311 220.897 174.403 220.805C174.494 220.714 174.617 220.663 174.746 220.663H174.798C175.584 220.663 176.311 220.476 176.396 220.314C176.569 219.941 176.58 219.916 176.215 217.643C176.135 217.135 176.037 216.52 175.921 215.774V215.732C175.921 215.559 175.814 214.022 176.273 213.078C176.437 212.734 176.822 212.501 177.398 212.386C178.889 212.086 181.448 212.556 182.738 213.701C182.786 213.743 182.825 213.795 182.853 213.852C182.881 213.91 182.897 213.973 182.9 214.036C182.904 214.1 182.895 214.164 182.874 214.225C182.853 214.285 182.82 214.341 182.778 214.388C182.735 214.436 182.684 214.475 182.626 214.503C182.569 214.531 182.506 214.547 182.442 214.551C182.378 214.555 182.314 214.546 182.254 214.525C182.194 214.504 182.138 214.471 182.09 214.428C181.149 213.605 179.21 213.185 177.956 213.289C177.407 213.336 177.176 213.467 177.132 213.511C176.857 214.096 176.857 215.23 176.879 215.644C176.995 216.383 177.091 216.99 177.173 217.489C177.552 219.861 177.582 220.056 177.275 220.724C176.901 221.555 175.369 221.635 174.809 221.635Z" fill="#0E2549"/>
<path d="M162.861 200.49C162.861 200.49 162.683 194.895 166.43 195.567C170.178 196.24 170.823 192.52 174.332 193.179C177.84 193.838 175.875 194.782 179.477 195.872C183.079 196.962 185.006 195.015 185.86 197.934C186.714 200.852 189.605 200.287 190.763 202.293C191.922 204.3 191.386 206.532 189.558 207.164C187.729 207.795 190.381 209.495 188.844 211.007C187.307 212.52 181.25 211.99 180.361 209.569C179.471 207.147 179.021 205.508 176.772 205.256C174.524 205.003 171.715 206.003 170.211 205.478C168.706 204.954 166.721 203.188 165.862 203.556C165.003 203.924 164.047 205.289 163.227 205.127C162.406 204.965 160.006 202.132 162.861 200.49Z" fill="#0E2549"/>
<path d="M166.387 201.305C166.387 201.305 165.382 203.996 164.292 205.149C163.202 206.302 161.719 207.071 161.744 208.992C161.769 210.914 157.118 207.963 158.408 205.972C161.069 201.854 157.058 200.622 159.693 198.56C161.266 197.338 164.031 197.547 164.031 197.547L166.387 201.305Z" fill="#0E2549"/>
<path d="M166.387 201.305C166.387 201.305 165.382 203.996 164.292 205.149C163.202 206.302 161.719 207.071 161.744 208.992C161.769 210.914 157.118 207.963 158.408 205.972C161.069 201.854 157.058 200.622 159.693 198.56C161.266 197.338 164.031 197.547 164.031 197.547L166.387 201.305Z" fill="#0E2549"/>
<path d="M149.283 238.734C144.453 236.243 113.988 257.293 105.381 285.046C95.7167 316.196 131.133 307.449 131.133 307.449L125.664 272.692L116.845 322.617L173.624 327.891L179.592 290.8C179.592 290.8 176.951 307.21 198.047 307.564C207.337 307.718 220.488 307.564 220.488 307.564L221.995 293.376L198.327 290.007C198.327 290.007 196.183 263.258 186.796 253.548C182.373 248.966 178.733 246.27 176.822 245.803C171.081 244.403 173.81 251.387 149.283 238.734Z" fill="#E2474B"/>
<path d="M183.103 301.793L194.359 300.599L198.013 301.552L198.546 302.908C198.546 302.908 192.536 302.554 188.984 303.635C185.431 304.717 182.738 304.371 182.738 304.371L182.543 303.547L183.103 301.793Z" fill="white"/>
<path d="M181.234 305.466C176.24 305.038 154.842 307.937 154.842 307.937L156.646 296.379C156.646 296.379 179.982 300.352 181.752 299.844C185.069 298.891 189.462 298.312 193.382 298.158C198.563 297.955 203.4 299.196 203.323 300.604C203.282 301.365 196.3 300.761 194.513 301.477C189.464 303.498 184.792 305.774 181.234 305.466Z" fill="white"/>
<path d="M154.147 308.613L156.163 295.709L156.742 295.808C165.675 297.329 180.317 299.619 181.593 299.287C184.74 298.383 189.138 297.744 193.358 297.579C197.822 297.406 202.159 298.265 203.45 299.578C203.598 299.711 203.715 299.875 203.793 300.059C203.872 300.242 203.909 300.441 203.903 300.64C203.851 301.571 202.56 301.59 199.436 301.642C197.684 301.672 195.502 301.708 194.73 302.018C193.959 302.328 193.121 302.674 192.334 303.001C188.215 304.709 184.314 306.323 181.184 306.054C176.311 305.637 155.133 308.486 154.919 308.525L154.147 308.613ZM157.129 297.054L155.534 307.265C159.471 306.743 176.764 304.519 181.283 304.901C184.13 305.145 187.9 303.583 191.889 301.93C192.679 301.604 193.484 301.269 194.296 300.942C195.268 300.555 197.377 300.519 199.417 300.484C200.49 300.467 201.888 300.442 202.566 300.341C201.555 299.427 197.698 298.575 193.404 298.743C189.27 298.905 184.976 299.525 181.915 300.407C180.191 300.898 162.101 297.878 157.129 297.054Z" fill="#0E2549"/>
<path d="M184.215 302.446L195.87 300.73L195.321 300.903C195.321 300.903 206.382 302.737 190.104 304.083C186.368 304.39 183.348 304.036 183.54 304.423L183.65 304.209L184.215 302.446Z" fill="white"/>
<path d="M185.794 305.417C185.649 305.413 185.512 305.355 185.407 305.255C185.303 305.155 185.24 305.02 185.23 304.876C185.22 304.731 185.264 304.589 185.354 304.475C185.443 304.362 185.572 304.285 185.714 304.262C187.057 304.069 188.273 303.787 189.344 303.539C190.653 303.235 191.782 302.971 192.77 302.96C193.967 302.944 197.531 302.9 198.151 302.477V302.447C197.877 302.084 195.573 301.198 193.273 301.181C191.56 301.196 189.861 301.495 188.246 302.065C188.1 302.12 187.939 302.115 187.797 302.051C187.655 301.987 187.544 301.869 187.489 301.723C187.434 301.578 187.439 301.416 187.504 301.274C187.568 301.133 187.685 301.022 187.831 300.967C189.553 300.356 191.363 300.031 193.19 300.006H193.281C195.496 300.023 198.618 300.86 199.17 301.878C199.281 302.047 199.343 302.242 199.351 302.444C199.358 302.645 199.309 302.845 199.211 303.021C198.75 303.809 197.311 304.053 192.798 304.119C191.935 304.119 190.876 304.393 189.621 304.668C188.523 304.923 187.285 305.217 185.89 305.406L185.794 305.417Z" fill="#0E2549"/>
<path d="M144.308 239.826L152.283 235.862L165.34 244.548L159.665 249.067L144.308 239.826Z" fill="#E2474B"/>
<path d="M181.022 247.942L177.255 241.877L165.34 244.548L168.432 250.41L181.022 247.942Z" fill="#E2474B"/>
<path d="M181.959 248.351L177.533 241.213L165.453 243.922L152.322 235.187L143.097 239.771L159.71 249.767L164.739 245.762C164.19 254.822 160.662 310.488 156.143 325.105C156.123 325.17 156.116 325.239 156.122 325.308C156.128 325.377 156.148 325.443 156.18 325.504C156.213 325.565 156.256 325.619 156.309 325.663C156.362 325.707 156.424 325.74 156.489 325.761C156.539 325.776 156.591 325.784 156.643 325.783C156.755 325.783 156.864 325.747 156.954 325.681C157.043 325.615 157.11 325.521 157.143 325.415C161.596 311.056 165.069 257.551 165.744 246.558L168.122 251.063L181.959 248.351ZM159.619 248.351L145.516 239.865L152.239 236.524L164.355 244.581L159.619 248.351ZM176.97 242.533L180.075 247.533L168.734 249.756L166.197 244.949L176.97 242.533Z" fill="#0E2549"/>
<path d="M125.032 287.078L164.871 294.216L160.231 307.943C160.231 307.943 132.64 308.742 126.737 307.943C115.755 306.458 103.986 296.772 103.986 296.772L125.032 287.078Z" fill="#E2474B"/>
<path d="M160.475 307.762C160.39 307.76 160.306 307.739 160.231 307.699C160.155 307.659 160.09 307.603 160.04 307.533C159.99 307.464 159.957 307.384 159.944 307.3C159.93 307.216 159.936 307.129 159.962 307.048L164.151 294.658L127.552 288.843L137.963 271.311C137.991 271.235 138.035 271.167 138.092 271.11C138.149 271.054 138.218 271.011 138.294 270.984C138.37 270.957 138.45 270.947 138.53 270.954C138.61 270.962 138.688 270.987 138.757 271.028C138.826 271.069 138.886 271.124 138.931 271.191C138.976 271.257 139.007 271.333 139.02 271.412C139.033 271.491 139.028 271.573 139.006 271.65C138.985 271.727 138.946 271.799 138.894 271.86L129.301 288.019L165.596 293.785L160.994 307.388C160.958 307.497 160.888 307.591 160.795 307.658C160.702 307.725 160.59 307.761 160.475 307.762Z" fill="#0E2549"/>
<path d="M456.328 312.333L127.701 311.891C126.827 311.891 125.989 311.544 125.371 310.926C124.753 310.308 124.406 309.47 124.406 308.596V308.212C124.406 307.338 124.753 306.5 125.371 305.882C125.989 305.264 126.827 304.917 127.701 304.917L456.328 305.362C457.201 305.362 458.039 305.709 458.657 306.327C459.275 306.945 459.622 307.783 459.622 308.656V309.038C459.622 309.912 459.275 310.75 458.657 311.368C458.039 311.986 457.201 312.333 456.328 312.333Z" fill="#EBF4FE"/>
<path d="M456.327 312.744L127.7 312.302C126.718 312.302 125.775 311.911 125.08 311.216C124.386 310.521 123.995 309.579 123.994 308.596V308.212C123.995 307.229 124.386 306.287 125.08 305.592C125.775 304.897 126.718 304.506 127.7 304.505L456.327 304.95C457.31 304.951 458.252 305.342 458.947 306.037C459.642 306.731 460.033 307.674 460.034 308.656V309.038C460.033 310.021 459.642 310.963 458.947 311.658C458.252 312.353 457.31 312.744 456.327 312.744ZM127.7 305.332C126.936 305.332 126.203 305.636 125.663 306.177C125.122 306.717 124.818 307.45 124.818 308.214V308.599C124.818 309.363 125.122 310.096 125.663 310.636C126.203 311.177 126.936 311.481 127.7 311.481L456.327 311.924C457.092 311.923 457.824 311.619 458.365 311.078C458.905 310.538 459.209 309.805 459.21 309.041V308.659C459.209 307.895 458.905 307.162 458.365 306.622C457.824 306.081 457.092 305.777 456.327 305.777L127.7 305.332Z" fill="#0E2549"/>
<path d="M116.489 442.694H109.515L141.667 311.943H148.643L116.489 442.694Z" fill="#EBF4FE"/>
<path d="M116.793 443.08H109.021L109.139 442.6L141.365 311.556H149.137L149.019 312.036L116.793 443.08ZM110.009 442.306H116.187L148.143 312.33H141.966L110.009 442.306Z" fill="#0E2549"/>
<path d="M455.164 442.693H462.137L442.905 312.333H435.929L455.164 442.693Z" fill="#EBF4FE"/>
<path d="M462.615 443.111H454.807L454.754 442.76L435.454 311.927H443.259L443.311 312.281L462.615 443.111ZM455.518 442.287H461.67L442.559 312.75H436.412L455.518 442.287Z" fill="#0E2549"/>
<path d="M246.605 158.341C249.289 143.929 239.782 130.071 225.371 127.387C210.959 124.703 197.101 134.21 194.417 148.621C191.733 163.032 201.24 176.891 215.651 179.575C230.063 182.259 243.921 172.752 246.605 158.341Z" fill="#A1C5E2"/>
<path d="M220.54 153.944L204.666 146.606C204.615 146.584 204.568 146.553 204.529 146.513C204.491 146.474 204.46 146.426 204.44 146.375C204.42 146.323 204.411 146.268 204.412 146.212C204.414 146.157 204.427 146.103 204.45 146.052C204.474 146.002 204.507 145.957 204.548 145.92C204.589 145.883 204.637 145.854 204.69 145.836C204.742 145.818 204.798 145.811 204.853 145.815C204.908 145.818 204.962 145.834 205.012 145.859L220.474 152.997L238.374 141.403C238.466 141.344 238.577 141.323 238.684 141.346C238.791 141.369 238.884 141.433 238.944 141.525C239.003 141.617 239.023 141.728 239.001 141.835C238.978 141.942 238.913 142.035 238.821 142.095L220.54 153.944Z" fill="#0E2549"/>
<path d="M275.251 262.462L265.672 301.252H209.72L221.048 262.462H275.251Z" fill="#EBF4FE"/>
<path d="M265.993 301.664H209.163L220.737 262.051H275.777L275.651 262.561L265.993 301.664ZM210.261 300.841H265.348L274.726 262.874H221.355L210.261 300.841Z" fill="#0E2549"/>
<path d="M192.948 304.917H265.62V301.252H192.948V304.917Z" fill="#A1C5E2"/>
<path d="M266.031 305.329H192.539V300.841H266.031V305.329ZM193.363 304.506H265.208V301.664H193.363V304.506Z" fill="#0E2549"/>
<path d="M242.152 289.225C242.037 289.225 241.921 289.225 241.803 289.208C241.135 289.14 240.492 288.921 239.921 288.567C239.351 288.214 238.868 287.736 238.509 287.168C237.688 285.921 237.322 284.429 237.471 282.943C237.745 279.717 240.139 277.274 242.814 277.507C245.488 277.741 247.431 280.547 247.154 283.772C246.885 286.858 244.68 289.225 242.152 289.225ZM242.459 278.317C240.356 278.317 238.514 280.357 238.286 283.015C238.153 284.311 238.47 285.614 239.184 286.705C239.476 287.17 239.87 287.564 240.336 287.856C240.802 288.148 241.328 288.33 241.875 288.39C244.09 288.574 246.089 286.468 246.328 283.704C246.567 280.939 244.955 278.518 242.737 278.328C242.643 278.32 242.553 278.317 242.459 278.317Z" fill="#0E2549"/>
<path d="M340.375 304.917C337.171 304.917 334.098 303.645 331.833 301.379C329.568 299.114 328.295 296.041 328.295 292.837V285.507H352.455V292.837C352.455 296.041 351.182 299.114 348.917 301.379C346.651 303.645 343.579 304.917 340.375 304.917Z" fill="#E2474B"/>
<path d="M349.844 300.761C349.668 300.761 349.492 300.761 349.314 300.745L349.372 299.921C352.007 300.102 354.404 298.784 355.961 296.319C357.333 294.145 357.704 291.487 356.861 290.004C356.74 289.762 356.564 289.552 356.346 289.392C356.129 289.231 355.876 289.124 355.609 289.079C353.932 288.805 351.376 290.658 350.536 291.399L349.987 290.781C350.121 290.661 353.333 287.866 355.752 288.267C356.14 288.331 356.507 288.485 356.825 288.716C357.143 288.947 357.402 289.249 357.583 289.598C358.583 291.361 358.204 294.304 356.663 296.758C355.041 299.322 352.581 300.761 349.844 300.761Z" fill="#E2474B"/>
<path d="M336.347 301.417C336.288 301.416 336.229 301.401 336.177 301.373C330.733 298.37 331.389 289.172 331.422 288.783C331.43 288.69 331.474 288.605 331.544 288.545C331.615 288.484 331.705 288.453 331.798 288.459C331.844 288.462 331.89 288.474 331.931 288.495C331.973 288.516 332.009 288.545 332.04 288.58C332.07 288.615 332.093 288.656 332.107 288.7C332.121 288.745 332.126 288.791 332.122 288.837C332.122 288.928 331.471 297.972 336.515 300.755C336.582 300.794 336.635 300.853 336.665 300.925C336.695 300.996 336.701 301.076 336.682 301.151C336.663 301.226 336.619 301.293 336.558 301.341C336.497 301.389 336.422 301.416 336.344 301.417H336.347Z" fill="white"/>
<path d="M334.37 283.577C334.29 283.573 334.213 283.546 334.148 283.499C334.083 283.453 334.033 283.388 334.004 283.313C333.975 283.239 333.968 283.157 333.985 283.079C334.001 283.001 334.039 282.928 334.096 282.872C336.232 280.752 336.841 280.033 336.811 277.611C336.778 275.431 335.77 274.506 334.708 273.526C333.884 272.763 333.011 271.969 332.575 270.591C331.537 267.33 335.57 264.293 335.74 264.164C335.784 264.132 335.833 264.109 335.886 264.095C335.938 264.082 335.993 264.08 336.046 264.087C336.1 264.095 336.151 264.114 336.198 264.141C336.244 264.169 336.284 264.206 336.317 264.249C336.349 264.293 336.372 264.342 336.386 264.395C336.399 264.447 336.402 264.502 336.394 264.555C336.386 264.609 336.367 264.66 336.34 264.707C336.312 264.753 336.275 264.794 336.232 264.826C336.196 264.853 332.501 267.64 333.36 270.341C333.731 271.511 334.475 272.197 335.265 272.922C336.41 273.974 337.596 275.064 337.635 277.589C337.676 280.335 336.907 281.235 334.675 283.448C334.636 283.49 334.589 283.523 334.536 283.545C334.484 283.567 334.427 283.578 334.37 283.577Z" fill="#0E2549"/>
<path d="M345.105 283.577C345.051 283.577 344.997 283.566 344.947 283.545C344.897 283.524 344.852 283.493 344.814 283.454C344.737 283.376 344.694 283.272 344.694 283.163C344.694 283.053 344.737 282.949 344.814 282.872C346.95 280.752 347.559 280.033 347.529 277.611C347.496 275.431 346.489 274.506 345.426 273.526C344.603 272.763 343.73 271.97 343.293 270.591C342.255 267.33 346.288 264.293 346.458 264.164C346.546 264.1 346.656 264.072 346.764 264.088C346.872 264.104 346.969 264.162 347.035 264.249C347.068 264.293 347.091 264.342 347.105 264.395C347.118 264.447 347.121 264.502 347.113 264.555C347.105 264.609 347.087 264.661 347.059 264.707C347.031 264.754 346.994 264.794 346.95 264.826C346.914 264.853 343.219 267.64 344.078 270.341C344.449 271.511 345.193 272.197 345.984 272.922C347.128 273.974 348.314 275.064 348.353 277.589C348.394 280.335 347.625 281.235 345.393 283.448C345.356 283.488 345.312 283.519 345.262 283.542C345.213 283.564 345.159 283.576 345.105 283.577Z" fill="#0E2549"/>
<path d="M339.367 281.405C339.286 281.405 339.206 281.381 339.139 281.336C339.071 281.291 339.018 281.226 338.987 281.151C338.956 281.076 338.948 280.993 338.964 280.913C338.979 280.834 339.019 280.76 339.076 280.703C341.215 278.58 341.822 277.861 341.791 275.44C341.758 273.26 340.754 272.335 339.688 271.357C338.865 270.591 337.994 269.798 337.555 268.422C336.517 265.158 340.55 262.108 340.723 261.995C340.766 261.959 340.816 261.932 340.87 261.915C340.924 261.899 340.98 261.894 341.036 261.9C341.092 261.906 341.146 261.924 341.195 261.952C341.244 261.98 341.286 262.018 341.32 262.063C341.354 262.108 341.378 262.16 341.391 262.214C341.404 262.269 341.405 262.326 341.395 262.381C341.386 262.437 341.364 262.49 341.333 262.537C341.302 262.583 341.262 262.624 341.215 262.654C341.176 262.684 337.481 265.468 338.34 268.173C338.714 269.339 339.458 270.026 340.246 270.751C341.393 271.805 342.577 272.892 342.615 275.418C342.659 278.163 341.887 279.061 339.658 281.274C339.621 281.314 339.576 281.346 339.526 281.369C339.476 281.391 339.422 281.404 339.367 281.405Z" fill="#0E2549"/>
<path d="M358.396 418.407L359.798 432.016H371.708L373.523 417.447L358.396 418.407Z" fill="white"/>
<path d="M372.101 432.461H359.398L357.907 417.993L374.031 416.969L372.101 432.461ZM360.2 431.58H371.316L373.015 417.935L358.887 418.833L360.2 431.58Z" fill="#0E2549"/>
<path d="M359.145 431.498C359.145 431.498 341.931 436.961 341.338 441.461H372.202V431.498H359.145Z" fill="#E2474B"/>
<path d="M396.856 416.933L394.015 431.736H405.924L408.06 417.389L396.856 416.933Z" fill="white"/>
<path d="M406.309 432.184H393.477L396.497 416.472L408.576 416.966L406.309 432.184ZM394.556 431.292H405.537L407.541 417.815L397.216 417.392L394.556 431.292Z" fill="#0E2549"/>
<path d="M393.361 431.218C393.361 431.218 376.15 436.681 375.554 441.184H406.418V431.218H393.361Z" fill="#E2474B"/>
<path d="M374.107 440.025V442.663H406.901V439.646L374.107 440.025Z" fill="#0E2549"/>
<path d="M373.166 439.534V442.663H340.375V439.306L373.166 439.534Z" fill="#0E2549"/>
<path d="M400.087 440.055C400.034 440.055 399.981 440.045 399.931 440.024C399.882 440.003 399.837 439.973 399.799 439.935C399.761 439.897 399.732 439.852 399.711 439.802C399.691 439.753 399.681 439.7 399.681 439.646V433.667C399.681 433.557 399.725 433.453 399.802 433.375C399.879 433.298 399.984 433.255 400.093 433.255C400.202 433.255 400.307 433.298 400.384 433.375C400.461 433.453 400.505 433.557 400.505 433.667V439.646C400.505 439.701 400.495 439.755 400.474 439.805C400.453 439.855 400.422 439.901 400.383 439.939C400.344 439.977 400.298 440.007 400.247 440.027C400.196 440.047 400.142 440.057 400.087 440.055Z" fill="#0E2549"/>
<path d="M365.872 440.335C365.763 440.335 365.659 440.292 365.582 440.216C365.506 440.139 365.462 440.035 365.462 439.926V433.947C365.462 433.838 365.506 433.733 365.583 433.656C365.66 433.578 365.765 433.535 365.874 433.535C365.983 433.535 366.088 433.578 366.165 433.656C366.243 433.733 366.286 433.838 366.286 433.947V439.926C366.286 439.98 366.275 440.034 366.254 440.084C366.233 440.134 366.203 440.179 366.164 440.217C366.126 440.256 366.08 440.286 366.03 440.306C365.979 440.326 365.926 440.336 365.872 440.335Z" fill="#0E2549"/>
<path d="M413.351 322.312L384.17 349.794L377.935 423.048L356.285 423.597C356.285 423.597 357.767 348.026 360.09 340.943C362.561 333.409 398.88 288.017 398.88 288.017L449.039 281.87C449.039 281.87 455.304 301.994 451.29 311.726C447.276 321.459 410.515 424.607 410.515 424.607L386.171 423.344L413.351 322.312Z" fill="#0E2549"/>
<path d="M413.625 322.661C413.594 322.665 413.563 322.665 413.532 322.661C413.484 322.649 413.438 322.627 413.398 322.597C413.358 322.568 413.324 322.53 413.299 322.487C413.273 322.445 413.257 322.397 413.249 322.348C413.242 322.298 413.245 322.248 413.257 322.2L418.018 303.896C418.05 303.806 418.114 303.732 418.198 303.688C418.282 303.643 418.38 303.632 418.472 303.656C418.564 303.68 418.643 303.738 418.694 303.818C418.745 303.898 418.765 303.995 418.748 304.088L413.988 322.389C413.965 322.468 413.917 322.537 413.852 322.586C413.787 322.635 413.707 322.661 413.625 322.661Z" fill="#A1C5E2"/>
<path d="M414.13 222.805L418.71 219.362L423.55 222.223L421.425 226.061L430.065 277.518L423.962 291.569L416.659 278.531L417.104 226.286L414.13 222.805Z" fill="#E2474B"/>
<path d="M417.963 172.687C420.761 172.498 427.545 171.951 428.396 176.849C429.373 182.436 429.686 189.785 429.785 193.667C429.804 194.409 429.556 195.132 429.086 195.705C428.617 196.279 427.956 196.664 427.226 196.792L410.331 199.754C409.583 199.886 408.813 199.737 408.168 199.337C407.523 198.937 407.048 198.313 406.833 197.585C405.331 192.509 402.671 181.577 402.99 179.814C404.099 173.821 413.54 172.989 417.963 172.687Z" fill="#0E2549"/>
<path d="M427.152 198.219C427.152 198.219 428.958 211.397 430.381 212.679C431.803 213.961 438.463 216.303 438.463 216.303L420.069 232.954L405.438 222.357C405.438 222.357 411.569 218.283 411.896 216.446C412.346 213.907 409.974 201.228 409.974 201.228L427.152 198.219Z" fill="white"/>
<path d="M420.113 233.482L404.738 222.341L405.235 222.011C407.547 220.474 411.297 217.583 411.511 216.372C411.945 213.934 409.589 201.429 409.589 201.302C409.579 201.248 409.58 201.193 409.591 201.139C409.603 201.085 409.625 201.034 409.656 200.989C409.687 200.943 409.727 200.905 409.773 200.875C409.819 200.845 409.87 200.824 409.924 200.814C409.978 200.804 410.034 200.804 410.088 200.816C410.142 200.827 410.193 200.849 410.238 200.88C410.283 200.911 410.322 200.951 410.352 200.997C410.382 201.043 410.403 201.095 410.413 201.149C410.512 201.67 412.807 213.931 412.335 216.523C412.033 218.217 407.739 221.306 406.191 222.371L420.074 232.425L437.694 216.463C435.962 215.834 431.333 214.085 430.122 212.99C428.665 211.666 427.067 200.504 426.762 198.28C426.755 198.226 426.758 198.171 426.772 198.118C426.786 198.065 426.81 198.016 426.843 197.972C426.876 197.929 426.917 197.892 426.964 197.865C427.011 197.837 427.063 197.819 427.118 197.812C427.172 197.804 427.227 197.808 427.279 197.821C427.332 197.835 427.382 197.859 427.425 197.893C427.469 197.926 427.505 197.967 427.533 198.014C427.56 198.061 427.578 198.113 427.586 198.167C428.278 203.202 429.727 211.51 430.683 212.378C431.8 213.388 435.075 215.927 436.906 216.57L437.933 217.366L420.113 233.482Z" fill="#0E2549"/>
<path d="M421.117 203.809C416.42 205.204 410.273 205.347 408.321 203.977C407.176 203.172 406.124 199.389 405.229 195.01C405.205 194.884 402.857 179.232 402.857 179.232L424.302 175.476C424.302 175.476 425.087 180.212 425.812 185.549C425.819 185.603 425.841 185.654 425.875 185.697C425.909 185.74 425.954 185.773 426.005 185.793C426.056 185.813 426.111 185.819 426.165 185.81C426.219 185.802 426.269 185.779 426.312 185.744C427.33 184.89 428.799 184.08 429.191 186.054C429.68 188.525 427.739 190.447 426.696 191.175C426.642 191.212 426.6 191.263 426.573 191.322C426.547 191.382 426.537 191.448 426.545 191.512C426.948 195.296 427.157 198.59 426.841 199.825C426.622 200.553 426.179 201.194 425.576 201.657L421.117 203.809Z" fill="white"/>
<path d="M413.246 205.357C411.05 205.357 409.128 205.044 408.085 204.322C406.986 203.551 405.918 200.534 404.826 195.101C404.801 194.974 403 182.977 402.448 179.301L402.391 178.903L424.642 175.007L424.711 175.419C424.711 175.465 425.488 180.108 426.193 185.302C427.146 184.542 427.945 184.267 428.568 184.479C429.09 184.662 429.436 185.162 429.595 185.961C430.064 188.322 428.472 190.406 426.957 191.482C427.443 196.009 427.536 198.766 427.231 199.913C426.99 200.725 426.501 201.44 425.831 201.959C425.79 201.994 425.742 202.02 425.69 202.037C425.638 202.053 425.584 202.059 425.53 202.054C425.476 202.05 425.423 202.035 425.375 202.01C425.327 201.985 425.284 201.951 425.249 201.909C425.214 201.868 425.188 201.82 425.171 201.768C425.155 201.716 425.149 201.662 425.153 201.608C425.158 201.554 425.173 201.501 425.198 201.453C425.223 201.405 425.257 201.362 425.298 201.327C425.836 200.92 426.232 200.354 426.432 199.71C426.613 198.996 426.707 196.998 426.122 191.543C426.107 191.404 426.129 191.265 426.187 191.138C426.244 191.011 426.335 190.903 426.449 190.823C426.74 190.617 429.293 188.737 428.774 186.123C428.708 185.783 428.568 185.357 428.283 185.256C427.937 185.135 427.311 185.423 426.564 186.046C426.466 186.129 426.347 186.184 426.22 186.205C426.093 186.226 425.963 186.213 425.843 186.166C425.723 186.119 425.618 186.041 425.538 185.94C425.459 185.839 425.408 185.718 425.392 185.59C424.799 181.217 424.156 177.209 423.95 175.943L403.316 179.556C404.139 185 405.586 194.697 405.625 194.93C406.981 201.665 408.038 203.271 408.549 203.631C410.333 204.883 416.379 204.775 420.988 203.405C421.093 203.374 421.206 203.386 421.302 203.438C421.399 203.49 421.47 203.578 421.501 203.683C421.533 203.788 421.521 203.901 421.469 203.997C421.417 204.093 421.329 204.165 421.224 204.196C418.63 204.944 415.946 205.335 413.246 205.357Z" fill="#0E2549"/>
<path d="M409.285 191.059C409.143 191.059 409.006 191.01 408.898 190.92C408.789 190.829 408.715 190.704 408.689 190.565L408.596 190.063C408.574 189.908 408.613 189.752 408.704 189.625C408.796 189.499 408.932 189.412 409.085 189.384C409.239 189.355 409.397 189.386 409.528 189.472C409.658 189.557 409.751 189.689 409.787 189.84L409.88 190.343C409.895 190.421 409.894 190.501 409.878 190.579C409.861 190.657 409.829 190.731 409.784 190.797C409.739 190.862 409.681 190.918 409.614 190.961C409.548 191.005 409.473 191.034 409.394 191.048C409.358 191.056 409.321 191.06 409.285 191.059Z" fill="#0E2549"/>
<path d="M418.891 189.472C418.748 189.472 418.609 189.421 418.499 189.328C418.39 189.235 418.317 189.106 418.293 188.965L418.21 188.462C418.184 188.304 418.222 188.141 418.315 188.011C418.409 187.88 418.55 187.792 418.709 187.766C418.867 187.74 419.029 187.778 419.16 187.871C419.29 187.965 419.378 188.106 419.405 188.264L419.487 188.77C419.513 188.928 419.475 189.09 419.382 189.22C419.289 189.35 419.148 189.438 418.99 189.464L418.891 189.472Z" fill="#0E2549"/>
<path d="M416.371 185.777C416.282 185.779 416.195 185.748 416.127 185.69C416.06 185.632 416.016 185.551 416.004 185.463C415.992 185.375 416.013 185.285 416.063 185.211C416.113 185.138 416.188 185.085 416.275 185.063C416.395 185.03 419.245 184.262 420.892 184.945C420.972 184.988 421.033 185.058 421.064 185.143C421.095 185.228 421.093 185.322 421.059 185.405C421.025 185.489 420.961 185.557 420.879 185.596C420.798 185.636 420.705 185.643 420.618 185.618C419.201 185.027 416.5 185.758 416.472 185.763C416.44 185.774 416.405 185.778 416.371 185.777Z" fill="#0E2549"/>
<path d="M410.471 186.452C410.471 186.452 408.755 185.87 406.438 187.391L410.471 186.452Z" fill="white"/>
<path d="M406.438 187.757C406.359 187.758 406.283 187.733 406.219 187.686C406.156 187.64 406.109 187.574 406.087 187.499C406.064 187.423 406.066 187.343 406.094 187.269C406.121 187.195 406.171 187.132 406.238 187.09C408.676 185.489 410.509 186.082 410.586 186.11C410.632 186.125 410.673 186.149 410.709 186.18C410.745 186.211 410.775 186.249 410.796 186.292C410.818 186.335 410.83 186.381 410.833 186.429C410.837 186.476 410.831 186.524 410.816 186.569C410.8 186.615 410.777 186.656 410.745 186.692C410.714 186.728 410.676 186.758 410.633 186.779C410.59 186.801 410.544 186.813 410.496 186.817C410.449 186.82 410.401 186.814 410.356 186.799C410.29 186.777 408.761 186.302 406.636 187.696C406.577 187.736 406.508 187.757 406.438 187.757Z" fill="#0E2549"/>
<path d="M414.103 194.859H414.084C413.625 194.843 412.102 194.716 411.775 193.838C411.531 193.179 411.569 192.992 412.033 190.683C412.132 190.186 412.253 189.585 412.395 188.858C412.407 188.798 412.43 188.741 412.464 188.69C412.498 188.639 412.541 188.595 412.592 188.561C412.642 188.527 412.699 188.504 412.759 188.492C412.819 188.48 412.88 188.479 412.94 188.491C413 188.503 413.057 188.526 413.108 188.56C413.159 188.594 413.202 188.637 413.236 188.688C413.27 188.738 413.294 188.795 413.306 188.855C413.318 188.915 413.319 188.976 413.307 189.036C413.161 189.769 413.032 190.37 412.942 190.867C412.491 193.105 412.5 193.127 412.645 193.517C412.706 193.679 413.397 193.904 414.122 193.931C414.245 193.934 414.362 193.985 414.447 194.074C414.533 194.163 414.579 194.282 414.577 194.405C414.574 194.528 414.523 194.645 414.434 194.73C414.345 194.815 414.226 194.862 414.103 194.859Z" fill="#0E2549"/>
<path d="M426.529 191.117C426.529 191.117 426.004 191.858 424.898 193.398C423.624 195.175 409.249 196.844 408.151 196.512C405.751 195.784 405.982 193.766 405.186 194.066C404.198 194.45 407.108 204.333 408.403 205.563C409.699 206.793 420.135 205.481 425.483 203.367C429.925 201.626 426.529 191.117 426.529 191.117Z" fill="#0E2549"/>
<path d="M424.527 176.585C424.527 176.585 409.329 183.998 401.104 179.649C392.878 175.3 404.343 173.041 411.382 172.533C418.422 172.025 428.371 171.729 424.527 176.585Z" fill="#0E2549"/>
<path d="M371.266 240.702C377.446 241.15 405.935 218.722 409.389 218.783C409.663 218.783 418.49 219.672 418.69 219.546C420.686 218.286 422.229 218.234 423.393 219.14C427.893 217.753 434.081 215.551 434.375 215.603C447.133 217.934 461.458 253.49 462.277 255.92C465.217 264.705 454.257 269.279 454.257 269.279C454.158 270.268 457.695 295.199 457.695 295.199L417.515 296.519L390.643 297.719C390.643 297.719 393.68 254.341 392.839 241.74C392.419 235.546 382.536 268.019 373.665 255.159C362.689 239.277 366.648 240.367 371.266 240.702Z" fill="white"/>
<path d="M390.179 298.153L390.212 297.68C390.243 297.247 393.232 254.176 392.409 241.762C392.409 241.657 392.392 241.572 392.381 241.506C391.895 242.055 390.948 243.796 390.097 245.35C387.289 250.525 383.041 258.349 378.391 258.597C376.554 258.693 374.849 257.614 373.309 255.382C366.064 244.878 365.726 242.292 366.445 241.059C367.101 239.922 368.746 240.054 370.651 240.21L371.316 240.263H371.489C375.132 240.263 386.226 232.817 395.168 226.81C402.992 221.558 407.876 218.332 409.397 218.332H409.414C409.504 218.332 409.963 218.376 411.316 218.505C413.469 218.706 417.875 219.117 418.567 219.109C420.519 217.901 422.175 217.736 423.49 218.645C425.579 218 428.033 217.179 430.018 216.515C433.922 215.208 434.241 215.12 434.46 215.161C439.932 216.161 446.23 222.999 453.184 235.477C458.642 245.287 462.351 254.747 462.686 255.75C465.453 264.002 456.371 268.713 454.697 269.51C454.845 271.596 456.786 285.672 458.123 295.102L458.189 295.566L417.54 296.901L390.179 298.153ZM392.486 240.523C392.533 240.524 392.58 240.529 392.626 240.54C393.175 240.658 393.224 241.396 393.243 241.712C394.042 253.479 391.418 292.522 391.094 297.277L417.494 296.096L457.209 294.792C456.632 290.713 453.739 270.201 453.835 269.238L453.862 268.988L454.093 268.889C454.524 268.708 464.654 264.354 461.873 256.054C461.558 255.11 457.774 245.526 452.432 235.928C445.73 223.883 439.479 217.006 434.35 216.029C433.983 216.1 432.096 216.732 430.271 217.341C428.22 218.027 425.664 218.881 423.523 219.537L423.314 219.603L423.141 219.469C422.073 218.645 420.695 218.782 418.921 219.9C418.726 220.021 418.647 220.067 411.234 219.367C410.295 219.279 409.485 219.205 409.392 219.2C408.063 219.2 401.749 223.436 395.643 227.535C385.968 234.031 374.992 241.391 371.261 241.119L370.588 241.067C369.037 240.941 367.568 240.823 367.181 241.498C366.437 242.783 368.675 247.173 374.017 254.918C375.39 256.892 376.837 257.858 378.358 257.773C382.539 257.548 386.816 249.671 389.37 244.963C391.113 241.693 391.794 240.523 392.486 240.523Z" fill="#0E2549"/>
<path d="M416.807 292.678C416.755 292.677 416.704 292.666 416.656 292.645C416.608 292.624 416.565 292.594 416.529 292.556C416.493 292.518 416.465 292.474 416.446 292.425C416.427 292.376 416.419 292.324 416.42 292.272L418.292 219.178C418.303 219.078 418.351 218.986 418.426 218.92C418.502 218.854 418.599 218.819 418.699 218.822C418.799 218.825 418.895 218.865 418.967 218.935C419.038 219.005 419.081 219.1 419.086 219.2L417.194 292.294C417.191 292.396 417.15 292.492 417.078 292.564C417.006 292.635 416.909 292.676 416.807 292.678Z" fill="#0E2549"/>
<path d="M414.141 222.969L418.723 219.526L423.909 221.901L420.659 226.481L423.934 272.302L417.831 286.353L410.528 273.315L417.117 226.45L414.141 222.969Z" fill="#E2474B"/>
<path d="M432.763 239.214C432.763 239.214 438.74 252.428 437.367 254.781C435.995 257.133 407.791 259.668 407.791 259.668L409.326 271.385C409.326 271.385 436.739 274.199 451.795 268.914L432.763 239.214Z" fill="white"/>
<path d="M425.705 272.51C416.662 272.51 409.419 271.788 409.279 271.772L408.972 271.742L407.344 259.316L407.747 259.28C407.819 259.28 414.885 258.635 422.024 257.718C435.248 256.019 436.849 254.888 437.035 254.583C437.963 252.996 434.694 244.425 432.415 239.376C432.394 239.329 432.382 239.279 432.38 239.228C432.378 239.176 432.387 239.125 432.405 239.077C432.422 239.029 432.45 238.985 432.485 238.947C432.52 238.91 432.562 238.88 432.608 238.858C432.655 238.837 432.706 238.825 432.757 238.823C432.808 238.822 432.859 238.83 432.907 238.848C432.955 238.866 432.999 238.893 433.037 238.928C433.074 238.963 433.105 239.005 433.126 239.052C433.746 240.425 439.144 252.521 437.711 254.975C437.436 255.423 436.755 256.623 422.12 258.492C415.953 259.286 409.842 259.865 408.236 260.021L409.68 271.025C412.736 271.3 437.722 273.444 451.685 268.554C451.783 268.52 451.89 268.526 451.983 268.571C452.076 268.616 452.148 268.696 452.182 268.793C452.216 268.891 452.21 268.998 452.165 269.091C452.121 269.184 452.041 269.256 451.943 269.29C444.616 271.851 434.345 272.51 425.705 272.51Z" fill="#0E2549"/>
<path d="M418.69 219.189L427.448 223.741L438.054 215.903L432.316 213.627L418.69 219.189Z" fill="white"/>
<path d="M418.69 219.189L412.875 224.559L404.604 221.135L407.673 217.687L418.69 219.189Z" fill="white"/>
<path d="M438.897 215.79L432.308 213.179L418.613 218.769L407.514 217.358L403.519 221.577L412.48 225.039L418.712 219.667L427.481 224.221L438.897 215.79ZM412.302 224.073L405.007 221.256L407.868 218.236L417.633 219.477L412.302 224.073ZM419.665 219.233L432.294 214.074L437.189 216.012L427.388 223.255L419.665 219.233Z" fill="#0E2549"/>
<path d="M411.349 233.693L411.525 236.189L402.301 236.853L402.122 234.349L411.349 233.693Z" fill="white"/>
<path d="M401.916 237.295L401.68 233.965L411.731 233.251L411.967 236.573L401.916 237.295ZM402.564 234.731L402.682 236.411L411.086 235.807L410.965 234.135L402.564 234.731Z" fill="#0E2549"/>
<path d="M349.495 225.531L359.077 264.318H415.028L403.701 225.531H349.495Z" fill="#EBF4FE"/>
<path d="M415.577 264.73H358.747L358.67 264.417L348.971 225.125H404.016L404.104 225.421L415.577 264.73ZM359.398 263.906H414.479L403.39 225.948H350.022L359.398 263.906Z" fill="#0E2549"/>
<path d="M431.797 264.318H359.126V267.983H431.797V264.318Z" fill="#A1C5E2"/>
<path d="M432.209 268.398H358.717V263.906H432.212L432.209 268.398ZM359.538 267.574H431.385V264.73H359.54L359.538 267.574Z" fill="#0E2549"/>
<path d="M382.602 252.304C380.074 252.304 377.869 249.938 377.605 246.852C377.331 243.626 379.275 240.812 381.946 240.587C382.616 240.541 383.288 240.647 383.911 240.898C384.535 241.148 385.093 241.537 385.545 242.034C386.566 243.124 387.182 244.533 387.289 246.023C387.436 247.508 387.07 249 386.251 250.248C385.89 250.814 385.407 251.291 384.837 251.644C384.266 251.997 383.623 252.217 382.956 252.288C382.832 252.299 382.714 252.304 382.602 252.304ZM382.295 241.394C382.201 241.394 382.108 241.394 382.02 241.394C379.805 241.586 378.193 243.997 378.432 246.77C378.671 249.542 380.661 251.64 382.885 251.456C383.431 251.396 383.957 251.214 384.423 250.922C384.889 250.631 385.283 250.238 385.575 249.773C386.288 248.681 386.605 247.378 386.473 246.08C386.383 244.78 385.849 243.55 384.96 242.596C384.621 242.223 384.209 241.923 383.75 241.715C383.29 241.506 382.793 241.393 382.289 241.383L382.295 241.394Z" fill="#0E2549"/>
<path d="M370.577 268.859C370.577 268.859 369.547 262.056 368.073 261.721C366.599 261.386 367.071 267.761 366.926 267.802C366.692 267.852 366.813 260.302 365.449 259.868C364.084 259.434 364.254 266.869 364.123 266.852C363.928 266.828 364.331 262.07 363.06 261.059C361.789 260.049 362.333 266.221 362.08 266.122C361.915 266.059 362.503 261.976 361.21 261.759C360.405 261.625 359.466 266.407 359.466 266.407C359.466 266.407 358.934 269.455 362.267 270.158C363.14 270.331 369.52 271.879 370.577 268.859Z" fill="white"/>
<path d="M366.582 271.091C365.15 271.059 363.726 270.875 362.332 270.542L362.187 270.512C358.535 269.741 359.084 266.353 359.09 266.32C360.1 261.161 360.982 261.309 361.286 261.359C361.554 261.406 361.791 261.557 361.948 261.779C362.055 261.131 362.239 260.752 362.544 260.606C362.67 260.549 362.81 260.531 362.947 260.555C363.084 260.578 363.21 260.642 363.31 260.738C363.692 261.094 363.956 261.559 364.065 262.07C364.229 260.752 364.49 259.89 364.927 259.582C365.019 259.515 365.127 259.471 365.24 259.453C365.353 259.436 365.469 259.445 365.577 259.481C366.253 259.698 366.623 260.774 366.865 262.668C366.932 262.222 367.14 261.808 367.458 261.488C367.557 261.408 367.672 261.352 367.796 261.325C367.92 261.297 368.049 261.298 368.172 261.329C369.778 261.702 370.717 267.135 370.967 268.791L370.983 268.884L370.95 268.975C370.569 270.04 369.476 271.091 366.582 271.091ZM361.204 262.144C360.861 262.46 360.251 264.39 359.831 266.471C359.815 266.57 359.414 269.156 362.335 269.765L362.486 269.798C366.807 270.743 369.528 270.394 370.173 268.81C369.693 265.688 368.724 262.251 367.977 262.075C367.967 262.069 367.956 262.066 367.945 262.066C367.934 262.066 367.923 262.069 367.914 262.075C367.326 262.542 367.332 265.773 367.334 266.836C367.337 267.898 367.334 268.074 366.997 268.145L366.824 268.181L366.676 268.071C366.478 267.92 366.464 267.772 366.374 266.221C366.151 262.405 365.8 260.381 365.333 260.203C365.059 260.379 364.71 261.504 364.564 265.798C364.523 266.951 364.523 266.973 364.367 267.108L364.238 267.217L364.067 267.198C363.683 267.149 363.678 266.904 363.658 265.867C363.636 264.697 363.587 261.965 362.835 261.337C362.56 261.817 362.56 263.959 362.56 264.793C362.56 266.053 362.56 266.248 362.324 266.405L362.157 266.517L361.956 266.446C361.66 266.331 361.665 266.119 361.682 265.329C361.737 263.379 361.575 262.3 361.204 262.144Z" fill="#0E2549"/>
<path d="M412.176 198.453C411.92 198.799 412.214 200.127 413.414 199.941C416.494 199.46 419.113 196.97 418.383 197.215C418.109 197.308 416.165 197.97 414.869 198.252C413.104 198.637 412.464 198.06 412.176 198.453Z" fill="white"/>
<path d="M456.729 378.931L467.985 360.537L487.752 369.734L485.528 384.696L456.729 378.931Z" fill="#D2EBFC"/>
<path d="M485.871 385.183L456.069 379.217L467.825 359.999L488.204 369.479L485.871 385.183ZM457.387 378.64L485.185 384.205L487.298 369.976L468.144 361.064L457.387 378.64Z" fill="#0E2549"/>
<path d="M432.453 379.23L436.272 367.716L463.081 376.051L457.793 386.467L432.453 379.23Z" fill="#D2EBFC"/>
<path d="M458.008 386.959L431.926 379.508L436.009 367.203L463.669 375.801L458.008 386.959ZM432.981 378.953L457.579 385.979L462.494 376.298L436.536 368.229L432.981 378.953Z" fill="#0E2549"/>
<path d="M429.049 377.317H490.195L482.873 442.674L436.006 442.814L429.049 377.317Z" fill="#2E6B99"/>
<path d="M507.76 443.111H23.2263C23.117 443.111 23.0123 443.068 22.9351 442.99C22.8578 442.913 22.8145 442.809 22.8145 442.699C22.8145 442.59 22.8578 442.485 22.9351 442.408C23.0123 442.331 23.117 442.287 23.2263 442.287H507.766C507.875 442.287 507.98 442.331 508.057 442.408C508.134 442.485 508.177 442.59 508.177 442.699C508.177 442.809 508.134 442.913 508.057 442.99C507.98 443.068 507.875 443.111 507.766 443.111H507.76Z" fill="#0E2549"/>
<path d="M421.012 198.126C422.35 194.559 423.208 193.041 427.25 195.094C428.892 195.928 429.625 197.639 431.569 197.639C433.509 197.639 435.255 195.086 436.474 193.848C437.853 192.447 440.258 195.584 441.165 193.74" stroke="#18181B" stroke-width="2.2386" stroke-linecap="round"/>
<path d="M154.902 193.817C139.286 185.68 125.829 174.778 116.487 159.628C112.051 152.435 107.082 143.447 106.313 134.824" stroke="#18181B" stroke-width="1.16267" stroke-linecap="round"/>
<path d="M146.173 213.403C128.837 208.2 105.627 196.544 99.0403 181.419" stroke="#18181B" stroke-width="1.16267" stroke-linecap="round"/>
<path d="M151.063 204.158C138.5 200.752 127.4 192.02 117.586 183.812C114.375 181.127 111.008 177.514 108.177 174.414C105.676 171.675 103.294 168.276 101.173 165.278C96.894 159.232 96.06 155.977 94.3882 153.266" stroke="#18181B" stroke-width="1.16267" stroke-linecap="round"/>
<path d="M274.606 179.245C275.308 180.609 277.594 186.866 280.207 185.924C281.144 185.586 281.726 183.787 281.833 182.884C281.937 182 281.536 180.965 281.394 180.095C281.325 179.665 280.753 178.594 281.127 178.817C282.579 179.683 284.657 184.842 286.303 184.67C288.035 184.489 288.878 180.63 288.71 179.254C288.593 178.296 288.015 175.488 288.39 176.377C289.226 178.363 290.252 182.585 292.493 183.454C295.402 184.582 298.854 181.93 300.871 180.351" stroke="url(#paint0_linear_255_2118)" stroke-width="2.2386" stroke-linecap="round"/>
<defs>
<linearGradient id="paint0_linear_255_2118" x1="276.381" y1="178.498" x2="297.054" y2="173.424" gradientUnits="userSpaceOnUse">
<stop stop-color="#D9B227"/>
<stop offset="1" stop-color="#FD4141"/>
</linearGradient>
</defs>
</svg>
